<?xml version="1.0" encoding="UTF-8"?>
<svg width="118px" height="29px" viewBox="0 0 118 29" version="1.1" xmlns="http://www.w3.org/2000/svg" xmlns:xlink="http://www.w3.org/1999/xlink">
    <!-- Generator: Sketch 52.6 (67491) - http://www.bohemiancoding.com/sketch -->
    <title>logo</title>
    <desc>Created with Sketch.</desc>
    <g id="Page-1" stroke="none" stroke-width="1" fill="none" fill-rule="evenodd">
        <g id="首页-copy" transform="translate(-120.000000, -16.000000)" fill="#ffffff">
            <g id="logo" transform="translate(120.000000, 16.000000)">
                <path d="M24.9130122,1.82124138 C24.9130122,1.82124138 17.2111252,-1.40944828 7.48106435,5.98089655 C7.48106435,5.98089655 16.364673,-2.73772414 24.9130122,1.82124138 M4.13147304,12.5105517 C3.70824696,12.5105517 3.36366435,12.166069 3.36366435,11.741931 C3.36366435,11.3188276 3.70824696,10.9743448 4.13147304,10.9743448 C4.55573391,10.9743448 4.90031652,11.3188276 4.90031652,11.741931 C4.90031652,12.166069 4.55573391,12.5105517 4.13147304,12.5105517 M26.1537165,13.2481379 L23.1807861,11.4884828 L21.73416,9.43813793 C20.3196122,7.56055172 17.6633252,7.15917241 15.7551861,8.53193103 L12.9022904,10.5864138 L8.62242957,9.22813793 C23.4280991,5.10468966 25.8049948,1.71365517 25.8049948,1.71365517 C25.8049948,1.71365517 19.1358209,-2.76151724 11.0117426,2.89917241 C2.44684696,8.86710345 -0.000413913043,12.461931 -0.000413913043,12.461931 C-0.000413913043,12.461931 1.96463826,17.1326207 6.71118609,14.056069 L12.1934643,17.9208966 L17.673673,12.7308966 L14.2506122,19.3712414 L16.2808557,20.8029655 L11.9699513,28.6246897 L23.4870817,20.6622759 L19.7939426,17.6902069 C19.9926209,17.5505517 26.1537165,13.2481379 26.1537165,13.2481379" id="Fill-1"></path>
                <path d="M87.0464304,19.0680345 C86.6335522,19.7001034 86.2082565,20.1614828 85.7736478,20.4418276 C85.5532391,20.5825172 85.2914391,20.6528621 84.9903174,20.6528621 C84.3290913,20.6528621 83.8820652,20.1397586 83.6482043,19.1125172 C84.4046304,16.9152759 84.7823261,15.8176897 85.5387522,13.6204483 C86.4586739,12.5632069 87.3216826,12.0356207 88.1246739,12.0356207 C88.4040652,12.0356207 88.6068826,12.109069 88.7362304,12.2580345 C88.9349087,12.4897586 89.0228652,12.8952759 89.0001,13.4756207 C88.9763,14.0559655 88.7589957,14.9456207 88.3461174,16.1435517 C87.8928826,17.4604483 87.4593087,18.4359655 87.0464304,19.0680345 M91.0158565,11.6114828 C90.4932913,11.1573448 89.8403435,10.9297586 89.0580478,10.9297586 C88.5551435,10.9297586 88.0739696,11.027 87.6165957,11.2204483 C87.1592217,11.4138966 86.6263087,11.7521724 86.015787,12.2363103 C86.4483261,10.9773448 86.6656304,10.3473448 87.0992043,9.08837931 C87.4499957,8.07044828 87.6248739,7.56044828 87.9746304,6.54355172 L84.8195783,6.54355172 C82.6920652,12.7225172 81.6283087,15.8135517 79.5018304,21.9925172 L82.6579174,21.9925172 L83.226013,20.3404483 C83.5395522,20.9807931 83.8655087,21.4163103 84.2028478,21.647 C84.5412217,21.8766552 84.9727261,21.9925172 85.4983957,21.9925172 C86.8446478,21.9925172 88.1153609,21.3966552 89.3043261,20.207 C90.2677087,19.2407931 90.9920565,18.0521724 91.4763348,16.6452759 C91.8633435,15.5218276 92.0144217,14.5152759 91.9295696,13.6256207 C91.8447174,12.737 91.5404913,12.0645862 91.0158565,11.6114828" id="Fill-4"></path>
                <path d="M98.5401748,19.0680345 C98.1272965,19.7001034 97.7020009,20.1614828 97.2673922,20.4418276 C97.0469835,20.5825172 96.7851835,20.6528621 96.4840617,20.6528621 C95.8228357,20.6528621 95.3758096,20.1397586 95.1429835,19.1125172 C95.8983748,16.9152759 96.2760704,15.8176897 97.0324965,13.6204483 C97.953453,12.5632069 98.815427,12.0356207 99.6184183,12.0356207 C99.8978096,12.0356207 100.100627,12.109069 100.229975,12.2580345 C100.428653,12.4897586 100.51661,12.8952759 100.49281,13.4756207 C100.470044,14.0559655 100.25274,14.9456207 99.8398617,16.1435517 C99.386627,17.4604483 98.953053,18.4359655 98.5401748,19.0680345 M102.509601,11.6114828 C101.987036,11.1573448 101.334088,10.9297586 100.551792,10.9297586 C100.048888,10.9297586 99.5677139,11.027 99.11034,11.2204483 C98.6529661,11.4138966 98.120053,11.7521724 97.5095313,12.2363103 C97.9431052,10.9773448 98.1593748,10.3473448 98.5929487,9.08837931 C98.94374,8.07044828 99.1186183,7.56044828 99.4683748,6.54355172 L96.3133226,6.54355172 C94.1858096,12.7225172 93.1230878,15.8135517 90.9955748,21.9925172 L94.1516617,21.9925172 L94.7197574,20.3404483 C95.0332965,20.9807931 95.359253,21.4163103 95.6965922,21.647 C96.0349661,21.8766552 96.4664704,21.9925172 96.99214,21.9925172 C98.3383922,21.9925172 99.6080704,21.3966552 100.797036,20.207 C101.761453,19.2407931 102.485801,18.0521724 102.970079,16.6452759 C103.357088,15.5218276 103.508166,14.5152759 103.423314,13.6256207 C103.338462,12.737 103.034236,12.0645862 102.509601,11.6114828" id="Fill-6"></path>
                <path d="M109.55854,6.49813793 C109.077366,6.49813793 108.609644,6.6677931 108.15434,7.00606897 C107.70007,7.34434483 107.39067,7.75193103 107.227175,8.22882759 C107.062644,8.70468966 107.092653,9.1102069 107.315131,9.44537931 C107.53761,9.78055172 107.89047,9.94710345 108.371644,9.94710345 C108.851783,9.94710345 109.321575,9.78055172 109.777914,9.44537931 C110.235288,9.1102069 110.545723,8.70468966 110.710253,8.22882759 C110.873749,7.75193103 110.844775,7.34434483 110.623331,7.00606897 C110.401888,6.6677931 110.046957,6.49813793 109.55854,6.49813793" id="Fill-8"></path>
                <path d="M102.661197,21.9927241 L105.803831,21.9927241 C106.101849,21.1268621 106.250857,20.6934138 106.548875,19.8275517 C107.687136,16.5182414 108.257301,14.8641034 109.395562,11.5547931 L106.253962,11.5547931 C104.816649,15.7299655 104.097475,17.8175517 102.661197,21.9927241" id="Fill-10"></path>
                <path d="M117.627568,12.5151034 C117.779681,12.0733793 117.856255,11.852 118.008368,11.4102759 L115.505229,11.4102759 C116.031933,9.88337931 116.293733,9.11889655 116.819403,7.592 L116.447916,7.592 C116.276142,7.78337931 116.101263,7.97165517 115.924316,8.15268966 C115.124429,8.97717241 113.364263,10.5847586 110.728672,12.1251034 C110.674863,12.2802759 110.646924,12.3588966 110.59415,12.5151034 L111.969377,12.5151034 C111.19329,14.7702759 110.805246,15.8978621 110.029159,18.1530345 C109.64422,19.2692414 109.448646,19.9561379 109.435194,20.2075172 C109.410359,20.6575172 109.559368,21.0713103 109.894637,21.4395862 C110.230942,21.8088966 110.732811,21.9930345 111.401281,21.9930345 C112.769263,21.9930345 114.002724,21.2782069 115.103733,19.8495862 C115.002324,19.7513103 114.95162,19.7016552 114.850211,19.6044138 C114.160011,20.3409655 113.57122,20.7092414 113.082803,20.7092414 C112.962768,20.7092414 112.849977,20.6554483 112.744429,20.5478621 C112.637846,20.4392414 112.587142,20.2975172 112.591281,20.1226897 C112.59542,19.9488966 112.700968,19.559931 112.907924,18.9568276 C113.794733,16.379931 114.238655,15.092 115.125463,12.5151034 L117.627568,12.5151034 Z" id="Fill-12"></path>
                <path d="M37.5440861,20.0343448 C37.3143643,20.2464138 37.0556687,20.4284828 36.7845557,20.5753793 C36.0550339,20.9695172 35.3224078,21.1671034 34.588747,21.1671034 C34.5773643,21.1671034 34.5690861,21.1650345 34.5577035,21.1650345 L33.3718426,21.1650345 C34.2845209,18.5136552 34.74086,17.1874483 35.6525035,14.536069 C36.8052513,14.5288276 37.6320426,14.6364138 38.1339122,14.8598621 C38.6357817,15.0822759 38.9555296,15.4753793 39.0931557,16.0371034 C39.229747,16.5988276 39.176973,17.2329655 38.9337991,17.9405517 C38.6606165,18.734 38.1980687,19.4312414 37.5440861,20.0343448 M38.0045643,7.70434483 C39.1045383,7.69710345 39.8640687,7.80468966 40.2821209,8.02813793 C40.7022426,8.25055172 40.9712861,8.57641379 41.0902861,9.00468966 C41.2103209,9.43193103 41.1544426,9.98124138 40.9247209,10.6505517 C40.6939643,11.3208966 40.3690426,11.8712414 39.9499557,12.3026207 C39.5308687,12.7350345 39.0269296,13.0702069 38.4371035,13.3081379 C37.8483122,13.546069 37.0194513,13.6650345 35.9525904,13.6650345 C36.773173,11.2805517 37.1839817,10.0877931 38.0045643,7.70434483 M42.5886513,15.1836552 C42.16646,14.7098621 41.2879296,14.3012414 39.9520252,13.966069 C41.4131383,13.631931 42.5079383,13.1798621 43.23746,12.6098621 C43.9669817,12.0408966 44.4574687,11.3912414 44.7078861,10.661931 C44.9458861,9.96986207 44.960373,9.31710345 44.751347,8.70262069 C44.5412861,8.08917241 44.1253035,7.6277931 43.5023643,7.31848276 C42.88046,7.0102069 41.6935643,6.85606897 39.9416774,6.85606897 L34.7677643,6.85606897 C32.684747,12.9098621 31.6416861,15.9388276 29.5586687,21.9926207 L35.1723643,21.9926207 C37.3360948,21.9926207 39.1469643,21.5436552 40.5853122,20.6415862 C41.7649643,19.9029655 42.5524339,18.9564138 42.9446165,17.8174483 C43.3161035,16.7384828 43.1919296,15.8602069 42.5886513,15.1836552" id="Fill-15"></path>
                <path d="M49.9357113,6.49813793 C49.4545374,6.49813793 48.9868157,6.6677931 48.5315113,7.00606897 C48.0772417,7.34434483 47.7678417,7.75193103 47.6043461,8.22882759 C47.4398157,8.70468966 47.4698243,9.1102069 47.6923026,9.44537931 C47.9158157,9.78055172 48.2676417,9.94710345 48.7488157,9.94710345 C49.2289548,9.94710345 49.6987461,9.78055172 50.1550852,9.44537931 C50.6124591,9.1102069 50.9239287,8.70468966 51.0874243,8.22882759 C51.25092,7.75193103 51.2229809,7.34434483 51.0005026,7.00606897 C50.7790591,6.6677931 50.4241287,6.49813793 49.9357113,6.49813793" id="Fill-17"></path>
                <path d="M43.0383678,21.9927241 L46.1810026,21.9927241 C46.47902,21.1268621 46.6280287,20.6934138 46.9260461,19.8275517 C48.0653417,16.5182414 48.6344722,14.8641034 49.7737678,11.5547931 L46.631133,11.5547931 C45.19382,15.7299655 44.4756809,17.8175517 43.0383678,21.9927241" id="Fill-19"></path>
                <path d="M57.1974017,7.5922069 L56.8259148,7.5922069 C56.6541409,7.78358621 56.4792626,7.97186207 56.3023148,8.15289655 C55.5024278,8.97634483 53.7422626,10.5849655 51.1056365,12.1242759 C51.0518278,12.2804828 51.0249235,12.3591034 50.9711148,12.5153103 L52.3473757,12.5153103 C51.5712887,14.7704828 51.1832452,15.898069 50.4071583,18.1522069 C50.0222191,19.2694483 49.8256104,19.9563448 49.8121583,20.2066897 C49.7873235,20.6577241 49.937367,21.0715172 50.2726365,21.4397931 C50.6079061,21.8091034 51.1108104,21.9922069 51.77928,21.9922069 C53.1472626,21.9922069 54.3807235,21.2784138 55.4817322,19.8497931 C55.3803235,19.7515172 55.3296191,19.7018621 55.2282104,19.6035862 C54.5390452,20.3411724 53.9492191,20.7094483 53.4608017,20.7094483 C53.340767,20.7094483 53.2279757,20.6546207 53.1224278,20.5470345 C53.0158452,20.4394483 52.9661757,20.2977241 52.96928,20.1228966 C52.9734191,19.948069 53.078967,19.5591034 53.2859235,18.956 C54.1727322,16.3801379 54.6166539,15.0922069 55.5034626,12.5153103 L58.005567,12.5153103 C58.15768,12.0735862 58.2342539,11.8522069 58.386367,11.4094483 L55.8832278,11.4094483 C56.4088974,9.88255172 56.6717322,9.11910345 57.1974017,7.5922069" id="Fill-21"></path>
                <path d="M75.9200339,19.2812414 C74.9794165,20.3084828 74.1795296,20.8215862 73.5183035,20.8215862 C73.2171817,20.8215862 73.0029817,20.7512414 72.8798426,20.6095172 C72.639773,20.3312414 72.5311209,19.8688276 72.5528513,19.2367586 C72.5756165,18.6036552 72.8136165,17.6291724 73.2668513,16.3112414 C73.6786948,15.1133103 74.072947,14.2236552 74.4496078,13.6433103 C74.8252339,13.0629655 75.1925817,12.6574483 75.5506165,12.4267586 C75.7824078,12.2777931 76.0369643,12.2033103 76.3153209,12.2033103 C77.119347,12.2033103 77.6181122,12.731931 77.8105817,13.7891724 C77.0541557,15.9853793 76.6754252,17.084 75.9200339,19.2812414 M78.2865817,12.4050345 C78.00926,11.9208966 77.709173,11.5826207 77.3852861,11.3891724 C77.0603643,11.1957241 76.6464513,11.0984828 76.1425122,11.0984828 C75.3612513,11.0984828 74.5520513,11.3250345 73.715947,11.7791724 C72.8798426,12.2333103 72.1120339,12.9046897 71.4156252,13.7943448 C70.7192165,14.684 70.1769904,15.6905517 69.7899817,16.814 C69.3057035,18.2208966 69.212573,19.4105517 69.5116252,20.3757241 C69.8810426,21.5643448 70.7419817,22.1612414 72.0871991,22.1612414 C72.6139035,22.1612414 73.1250861,22.0453793 73.6217817,21.8146897 C74.1174426,21.5850345 74.7434861,21.1495172 75.4968078,20.5091724 L74.9287122,22.1612414 L78.0847991,22.1612414 C79.6100687,17.7274483 80.3737383,15.5095172 81.9000426,11.0736552 L78.7439557,11.0736552 C78.5618339,11.6064138 78.4697383,11.8722759 78.2865817,12.4050345" id="Fill-23"></path>
                <path d="M64.5530504,7.69731034 C65.3043026,7.69213793 65.9044765,7.73558621 66.3297722,7.84213793 C66.5139635,7.88868966 66.6743548,7.9517931 66.801633,8.02317241 C67.2279635,8.25903448 67.5032157,8.59110345 67.62532,9.02041379 C67.7474243,9.44351724 67.6987896,9.98765517 67.473207,10.6393793 C67.2486591,11.2942069 66.9247722,11.8352414 66.5108591,12.2593793 C66.092807,12.6876552 65.5888678,13.0207586 65.0011113,13.2566207 C64.8241635,13.3269655 64.6234157,13.390069 64.4040417,13.4376552 C63.9073461,13.5431724 63.2750939,13.5876552 62.5269461,13.5824828 C63.3382157,11.228 63.7428157,10.0507586 64.5530504,7.69731034 M67.7619113,13.9652414 C68.5959461,13.658 69.3285722,13.2007586 69.9597896,12.5914483 C70.5392678,12.0307586 70.9500765,11.438 71.1963548,10.8121379 C71.2149809,10.7655862 71.233607,10.7190345 71.2501635,10.6724828 C71.2532678,10.6642069 71.257407,10.655931 71.2594765,10.6476552 C71.2605113,10.6455862 71.2605113,10.6424828 71.2615461,10.6393793 C71.2625809,10.6373103 71.2636157,10.6342069 71.2646504,10.6311034 C71.2677548,10.6238621 71.2698243,10.6155862 71.2729287,10.6073103 C71.2874157,10.5607586 71.3019026,10.5142069 71.3153548,10.4676552 C71.4943722,9.84489655 71.4964417,9.24903448 71.3019026,8.68834483 C71.090807,8.07903448 70.6737896,7.6217931 70.0498157,7.31455172 C69.4258417,7.00834483 68.2399809,6.85627586 66.4880939,6.85627586 L64.8427896,6.85627586 L61.3131461,6.85627586 C59.2290939,12.910069 58.1870678,15.938 56.1030157,21.9928276 L59.6326591,21.9928276 C60.6746852,18.965931 61.1951809,17.4514483 62.2382417,14.4235172 L62.522807,14.4235172 C63.1736852,17.4514483 63.4996417,18.965931 64.1515548,21.9928276 L67.6811983,21.9928276 C67.021007,18.9255862 66.6909113,17.3914483 66.03072,14.3242069 C66.7374765,14.2476552 67.31592,14.1286897 67.7619113,13.9652414" id="Fill-25"></path>
            </g>
        </g>
    </g>
</svg>