<?xml version="1.0" encoding="utf-8"?>
<!-- Generator: Adobe Illustrator 23.0.4, SVG Export Plug-In . SVG Version: 6.00 Build 0)  -->
<svg version="1.1" id="图层_1" xmlns="http://www.w3.org/2000/svg" xmlns:xlink="http://www.w3.org/1999/xlink" x="0px" y="0px"
	 viewBox="0 0 100 100" style="enable-background:new 0 0 100 100;" xml:space="preserve">
<style type="text/css">
	.st0{fill:#A10000;}
	.st1{fill:#01C740;}
	.st2{opacity:0.4;}
	.st3{fill:#FBFBFB;}
	.st4{opacity:0.13;fill:#383838;}
	.st5{opacity:0.1;fill:#383838;}
	.st6{opacity:0;fill:#383838;}
	.st7{fill:#0F89F4;}
	.st8{fill:#CD25FE;}
	.st9{fill:#FECE22;}
	.st10{fill:#F05010;}
</style>
<g>
	<g>
		<g>
			<path class="st10" d="M90.1,1H9.9C5,1,1,5,1,9.9v80.3C1,95,5,99,9.9,99h80.3c4.9,0,8.9-4,8.9-8.9V9.9C99,5,95,1,90.1,1z M91,86.3
				c0,2.6-2.1,4.7-4.7,4.7H13.7C11.1,91,9,88.9,9,86.3V13.7C9,11.1,11.1,9,13.7,9h72.6c2.6,0,4.7,2.1,4.7,4.7V86.3z"/>
			<rect x="7.7" y="4.9" class="st2" width="84.5" height="4.1"/>
			<rect x="7.7" y="94.9" class="st2" width="84.5" height="4.1"/>
			
				<rect x="-39.2" y="47.9" transform="matrix(6.123234e-17 -1 1 6.123234e-17 -46.9285 53.0715)" class="st2" width="84.5" height="4.1"/>
			
				<rect x="50.8" y="47.9" transform="matrix(6.123234e-17 -1 1 6.123234e-17 43.0715 143.0715)" class="st2" width="84.5" height="4.1"/>
		</g>
		<path d="M90.1,2.5c4.1,0,7.4,3.3,7.4,7.4v80.3c0,4.1-3.3,7.4-7.4,7.4H9.9c-4.1,0-7.4-3.3-7.4-7.4V9.9c0-4.1,3.3-7.4,7.4-7.4H90.1
			 M90.1,1H9.9C5,1,1,5,1,9.9v80.3C1,95,5,99,9.9,99h80.3c4.9,0,8.9-4,8.9-8.9V9.9C99,5,95,1,90.1,1L90.1,1z"/>
		<path d="M86.3,10.5c1.8,0,3.2,1.4,3.2,3.2v72.6c0,1.8-1.4,3.2-3.2,3.2H13.7c-1.8,0-3.2-1.4-3.2-3.2V13.7c0-1.8,1.4-3.2,3.2-3.2
			H86.3 M86.3,9H13.7C11.1,9,9,11.1,9,13.7v72.6c0,2.6,2.1,4.7,4.7,4.7h72.6c2.6,0,4.7-2.1,4.7-4.7V13.7C91,11.1,88.9,9,86.3,9
			L86.3,9z"/>
	</g>
	<g>
		<g>
			<polygon class="st10" points="15,90.6 14.5,85.5 9.4,85 1,88.9 2.7,97.3 11.1,99 			"/>
			<polygon class="st2" points="14.5,85.5 15,90.6 11.1,99 2.7,97.3 			"/>
			<polygon class="st4" points="9.4,85 1,88.9 2.7,97.3 10.6,89.4 			"/>
		</g>
		<path d="M9.7,86.5l3.4,0.4l0.4,3.4l-3.3,7L4,96l-1.3-6.3L9.7,86.5 M9.4,85L1,88.9l1.7,8.4l8.4,1.7l3.9-8.4l-0.6-5L9.4,85L9.4,85z"
			/>
	</g>
	<g>
		<g>
			<polygon class="st10" points="9.4,15 14.5,14.5 15,9.4 11.1,1 2.7,2.7 1,11.1 			"/>
			<polygon class="st2" points="14.5,14.5 9.4,15 1,11.1 2.7,2.7 			"/>
		</g>
		<path d="M10.2,2.7l3.3,7l-0.4,3.4l-3.4,0.4l-7-3.3L4,4L10.2,2.7 M11.1,1L2.7,2.7L1,11.1L9.4,15l5-0.6l0.6-5L11.1,1L11.1,1z"/>
	</g>
	<g>
		<g>
			<polygon class="st10" points="85,90.6 85.5,85.5 90.6,85 99,88.9 97.3,97.3 88.9,99 			"/>
			<polygon class="st2" points="85.5,85.5 85,90.6 88.9,99 97.3,97.3 			"/>
			<polygon class="st5" points="90.6,85 99,88.9 97.3,97.3 89.4,89.4 			"/>
		</g>
		<path d="M90.3,86.5l7,3.3L96,96l-6.3,1.3l-3.3-7l0.4-3.4L90.3,86.5 M90.6,85l-5,0.6l-0.6,5l3.9,8.4l8.4-1.7l1.7-8.4L90.6,85
			L90.6,85z"/>
	</g>
	<g>
		<g>
			<polygon class="st10" points="90.6,15 85.5,14.5 85,9.4 88.9,1 97.3,2.7 99,11.1 			"/>
			<polygon class="st2" points="85.5,14.5 90.6,15 99,11.1 97.3,2.7 			"/>
			<polygon class="st6" points="85,9.4 88.9,1 97.3,2.7 89.4,10.6 			"/>
		</g>
		<path d="M89.8,2.7L96,4l1.3,6.3l-7,3.3l-3.4-0.4l-0.4-3.4L89.8,2.7 M88.9,1L85,9.4l0.6,5l5,0.6l8.4-3.9l-1.7-8.4L88.9,1L88.9,1z"
			/>
	</g>
</g>
</svg>
