<?xml version="1.0" encoding="UTF-8"?>
<svg width="50px" height="50px" viewBox="0 0 50 50" version="1.1" xmlns="http://www.w3.org/2000/svg" xmlns:xlink="http://www.w3.org/1999/xlink">
    <!-- Generator: Sketch 52.2 (67145) - http://www.bohemiancoding.com/sketch -->
    <title>Group 5</title>
    <desc>Created with Sketch.</desc>
    <g id="Page-1" stroke="none" stroke-width="1" fill="none" fill-rule="evenodd">
        <g id="首页-copy" transform="translate(-41.000000, -264.000000)">
            <g id="编组-6" transform="translate(42.000000, 265.000000)">
                <g id="Group-5">
                    <circle id="Oval-Copy" stroke="#F0D224" fill="#FFF756" cx="24" cy="24" r="24"></circle>
                    <circle id="Oval-Copy-3" fill="#F3EB3B" cx="24" cy="24" r="20"></circle>
                    <path d="M24,4 C22.8060333,4 21.6365027,4.10462374 20.5000761,4.30520348 M17.7239523,5.00452777 C9.75263614,7.63678093 4,15.1465904 4,24" id="Shape" stroke="#FFFFFF" stroke-width="2"></path>
                    <path d="M38.1894893,38 C32.6425151,38 27.6229666,40.2581775 24,43.9053761" id="Path" stroke="#FFFFFF" stroke-width="2" transform="translate(31.094745, 40.952688) rotate(-180.000000) translate(-31.094745, -40.952688) "></path>
                    <path d="M22.1364468,17.2681197 C22.8288053,17.9605568 23.1921955,18.916144 23.1353551,19.8948548 C23.0784794,20.8735303 22.6067747,21.7823761 21.8386879,22.393051 C20.5825503,23.3998278 18.7401093,23.3811877 17.5044131,22.3514638 C16.5418332,21.5552 16.0891224,20.2978762 16.3224858,19.0688304 C16.3626624,18.853622 16.2941009,18.6326946 16.1392549,18.478349 L16.1140827,18.4531778 C15.9856093,18.3239327 15.8096865,18.252938 15.6273029,18.256786 C15.4448841,18.2605988 15.2718563,18.3389013 15.1483608,18.4734418 C13.6785245,20.0917055 12.2336838,21.946889 11,24.0138918 C11,24.0138918 12.4400039,26.4278192 15.0651478,29.4076217 C15.2098614,29.5719934 15.4162168,29.6690772 15.6353171,29.6759614 C15.8544527,29.6828102 16.0668452,29.5988592 16.222256,29.4439134 C16.4041453,29.2596306 16.4855224,28.9987753 16.4406856,28.7441685 C16.2368721,27.5342923 16.6943491,26.306235 17.6407594,25.5227156 C18.8769852,24.4920384 20.7194615,24.4695503 21.9751401,25.4720202 C23.2056113,26.4469535 23.6168392,28.1333524 22.9740131,29.5686749 C22.3312223,31.0040327 20.7979789,31.8230318 19.2495193,31.5581872 C18.9962088,31.5141994 18.7370731,31.5958557 18.5544071,31.7772436 L18.5278227,31.8038269 C18.3731533,31.9585608 18.2889165,32.1699564 18.294883,32.3884127 C18.3008848,32.6068336 18.3965602,32.8129337 18.5594557,32.958277 C20.1498218,34.3917991 21.9665611,35.7972197 23.9859488,37 C23.9859488,37 26.4568116,35.5236905 29.488488,32.8382461 C29.6272351,32.7155322 29.7093889,32.5411343 29.7155672,32.3561808 C29.7217455,32.1712273 29.6513481,31.9920283 29.5210388,31.8609475 C29.3666871,31.7061076 29.145751,31.6375488 28.9305341,31.6777238 C27.6600276,31.9191271 26.3630426,31.4274947 25.5738436,30.4053256 C24.6117934,29.1728907 24.624962,27.3895845 25.6032171,26.1660459 C26.5863795,24.9223139 28.2905324,24.5091605 29.7306422,25.1654471 C31.1706814,25.8217337 31.9741082,27.377652 31.6765257,28.9338173 C31.636808,29.1479313 31.705652,29.3675526 31.860392,29.5203448 L31.8859173,29.5458337 C32.014426,29.6751141 32.1902782,29.7460735 32.3726617,29.7422255 C32.5550806,29.7384127 32.7281437,29.6601102 32.8516392,29.525605 C34.3214755,27.907306 35.7663162,26.0521225 37,23.9851197 C37,23.9851197 35.5599961,21.5711923 32.9348522,18.5913898 C32.7901386,18.4270534 32.5837832,18.3299343 32.3646476,18.3230501 C32.1455473,18.3162013 31.9331548,18.4001523 31.7777087,18.5550981 C31.5956429,18.7394162 31.5140893,19.0004128 31.5589614,19.255196 C31.7628101,20.4650722 31.3053332,21.6931296 30.3588875,22.476649 C29.1226617,23.5072908 27.2801854,23.5298142 26.0245068,22.5273091 C24.7930472,21.552764 24.3810778,19.8657297 25.0239745,18.429807 C25.6668713,16.9938491 27.200856,16.1746735 28.7498099,16.4401536 C29.0031204,16.4841414 29.2622561,16.4024851 29.4449574,16.2210972 L29.4715418,16.1945139 C29.6258229,16.0399564 29.7099184,15.8288433 29.7040579,15.6107754 C29.6981973,15.3926721 29.6029102,15.1867838 29.4405443,15.0414052 C27.8501782,13.6078832 26.0337566,12.2028156 24.014369,11 C24.014369,11 21.5435061,12.4763095 18.5118651,15.1617539 C18.3730827,15.2845031 18.2909289,15.4588657 18.2847506,15.6438545 C18.2786076,15.828808 18.3489696,16.0079717 18.4793142,16.1390878 C18.631936,16.2940336 18.8516012,16.3631573 19.0657942,16.3236177 C20.183679,16.1100686 21.3336203,16.4637714 22.1364468,17.2681197" id="Fill-1" fill="#FFFFFF"></path>
                </g>
            </g>
        </g>
    </g>
</svg>