<?xml version="1.0" encoding="utf-8"?>
<!-- Generator: Adobe Illustrator 21.0.0, SVG Export Plug-In . SVG Version: 6.00 Build 0)  -->
<svg version="1.1" id="图层_1" xmlns="http://www.w3.org/2000/svg" xmlns:xlink="http://www.w3.org/1999/xlink" x="0px" y="0px"
	 viewBox="0 0 40 40" style="enable-background:new 0 0 40 40;" xml:space="preserve">
<style type="text/css">
	.st0{fill:url(#Fill-1_1_);}
	.st1{fill:#FFFFFF;}
</style>
<title>Group 4</title>
<desc>Created with Sketch.</desc>
<g id="Page-1">
	<g id="首页-copy" transform="translate(-74.000000, -708.000000)">
		<g id="Group-3" transform="translate(74.000000, 708.000000)">
			<g id="Group-4">
				
					<linearGradient id="Fill-1_1_" gradientUnits="userSpaceOnUse" x1="10.25" y1="30.25" x2="10.25" y2="29.2568" gradientTransform="matrix(40 0 0 -40 -390 1210)">
					<stop  offset="0" style="stop-color:#953D96"/>
					<stop  offset="1" style="stop-color:#D85BDB"/>
				</linearGradient>
				<path id="Fill-1" class="st0" d="M20,0c11,0,20,9,20,20s-9,20-20,20S0,31,0,20S9,0,20,0"/>
				
					<g id="basechain-01" transform="translate(20.000000, 20.000000) rotate(-315.000000) translate(-20.000000, -20.000000) translate(9.000000, 9.000000)">
					<path id="Shape" class="st1" d="M17.6,14.2c-1,0-2-0.4-2.6-1.2c-0.7-0.8-1-1.8-0.9-2.8c0.2-1.6,1.5-3,3.2-3.1
						c1.3-0.1,2.5,0.5,3.3,1.5c0.1,0.2,0.3,0.3,0.6,0.3h0c0.2,0,0.4-0.1,0.5-0.2c0.1-0.1,0.2-0.3,0.2-0.5c-0.1-2.3-0.4-4.7-1-7.1
						c0,0-2.8-0.7-6.9-1c-0.2,0-0.4,0.1-0.6,0.2S13,0.7,13,1c0,0.3,0.1,0.5,0.4,0.7c1,0.7,1.6,2,1.5,3.2c-0.2,1.7-1.5,3-3.1,3.2
						C10.1,8.3,8.6,7.3,8,5.8S7.9,2.6,9.3,1.6C9.5,1.5,9.6,1.2,9.6,1v0c0-0.2-0.1-0.4-0.3-0.6S9,0.1,8.7,0.1c-2.2,0.1-4.6,0.4-6.9,1
						c0,0-0.7,2.9-1,7c0,0.2,0.1,0.4,0.2,0.5c0.1,0.1,0.3,0.2,0.5,0.2c0.2,0,0.4-0.1,0.6-0.3c0.8-1.1,2.1-1.7,3.4-1.5
						c1.6,0.2,2.9,1.5,3.1,3.1c0.2,1.6-0.8,3.2-2.3,3.7c-1.5,0.6-3.3,0-4.2-1.3c-0.1-0.2-0.3-0.3-0.6-0.3h0c-0.2,0-0.4,0.1-0.5,0.2
						S0.8,12.9,0.8,13c0.1,2.3,0.4,4.7,1,7.1c0,0,2.8,0.7,6.9,1c0.2,0,0.4-0.1,0.6-0.2c0.2-0.2,0.3-0.4,0.3-0.6
						c0-0.3-0.1-0.5-0.4-0.7c-1-0.7-1.6-2-1.5-3.2c0.2-1.7,1.5-3,3.1-3.2c1.6-0.2,3.1,0.7,3.7,2.3c0.6,1.5,0.1,3.2-1.3,4.2
						C13.1,19.7,13,20,13,20.3v0c0,0.2,0.1,0.4,0.3,0.6c0.2,0.2,0.4,0.2,0.6,0.2c2.2-0.1,4.6-0.4,6.9-1c0,0,0.7-2.9,1-7
						c0-0.2-0.1-0.4-0.2-0.5c-0.1-0.1-0.3-0.2-0.5-0.2c-0.2,0-0.4,0.1-0.6,0.3C19.9,13.6,18.8,14.2,17.6,14.2z"/>
				</g>
			</g>
		</g>
	</g>
</g>
</svg>
