<?xml version="1.0" encoding="UTF-8" standalone="no"?>
<svg width="196px" height="22px" viewBox="0 0 196 22" version="1.1" xmlns="http://www.w3.org/2000/svg" xmlns:xlink="http://www.w3.org/1999/xlink">
    <!-- Generator: Sketch 50.2 (55047) - http://www.bohemiancoding.com/sketch -->
    <defs>
        <linearGradient x1="50%" y1="0%" x2="50%" y2="100%" id="lg8">
            <stop stop-color="#CCD0D4" offset="0%"></stop>
            <stop stop-color="#64707E" offset="100%"></stop>
        </linearGradient>
    </defs>
    <g id="Page-1" stroke="none" stroke-width="1" fill="none" fill-rule="evenodd">
        <g id="Desktop-HD" transform="translate(-622.000000, -438.000000)" fill="url(#lg8)">
            <g id="Group-3" transform="translate(622.000000, 438.000000)">
                <path d="M2.04149104,19.0193061 L5.8409405,19.0193061 C6.57815341,19.0193061 7.28206738,18.9484932 7.95338495,18.8067269 C8.6241405,18.6649606 9.21017348,18.4380502 9.71120287,18.1261362 C10.2119513,17.8142222 10.6137864,17.4080315 10.9164272,16.9070022 C11.2185061,16.4062538 11.369967,15.8060301 11.369967,15.1064717 C11.369967,13.7835068 10.9207828,12.7956387 10.0232573,12.1434294 C9.12516989,11.4912201 7.85405018,11.1652559 6.2096172,11.1652559 L2.04149104,11.1652559 L2.04149104,19.0193061 Z M2.04149104,9.49230108 L6.15285448,9.49230108 C6.64418925,9.49230108 7.14044158,9.43567885 7.64133047,9.32215341 C8.14207885,9.20876846 8.6006767,9.01515699 9.01656201,8.74089749 C9.43216631,8.4670595 9.76796559,8.10301935 10.0232573,7.64933907 C10.2784086,7.19565878 10.4059842,6.63828817 10.4059842,5.97638423 C10.4059842,5.33401004 10.2784086,4.7904086 10.0232573,4.34600143 C9.76796559,3.90215627 9.42289319,3.53797563 8.98818065,3.25444301 C8.5531871,2.97091039 8.04274409,2.7678853 7.45713262,2.64480573 C6.87095914,2.52200717 6.24727168,2.46046738 5.58578925,2.46046738 L2.04149104,2.46046738 L2.04149104,9.49230108 Z M0,0.702508961 L5.98270681,0.702508961 C6.73846595,0.702508961 7.50406022,0.783156989 8.2793491,0.943610036 C9.05421649,1.10434409 9.74885735,1.37860358 10.3634122,1.76582652 C10.9775455,2.15347097 11.4785749,2.67796416 11.8662194,3.33944659 C12.2534423,4.00135054 12.4474753,4.83298065 12.4474753,5.83461792 C12.4474753,6.89343943 12.1240401,7.81499068 11.4781534,8.59913118 C10.8321262,9.38383369 9.96733763,9.89905376 8.88463082,10.1445104 L8.88463082,10.2011326 C10.1862394,10.3527341 11.2658552,10.8582595 12.1240401,11.7181305 C12.9822251,12.5785634 13.4114581,13.7454308 13.4114581,15.2198566 C13.4114581,16.0519082 13.2369548,16.8125849 12.8878079,17.5024487 C12.5386609,18.1925935 12.0438136,18.7783455 11.4024229,19.2602667 C10.7608918,19.7423283 9.97801577,20.1157821 9.05379498,20.380347 C8.1297147,20.6453333 7.09210896,20.7772645 5.94196129,20.7772645 L0,20.7772645 L0,0.702508961 Z" id="Fill-1"></path>
                <path d="M25.9831369,13.6319054 L34.8295513,13.6319054 L30.4064143,2.97076989 L25.9831369,13.6319054 Z M23.0342853,20.777124 L20.7942652,20.777124 L29.4706724,0.702508961 L31.4555412,0.702508961 L40.0751857,20.777124 L37.8067842,20.777124 L35.5951455,15.5032487 L25.2175427,15.5032487 L23.0342853,20.777124 Z" id="Fill-3"></path>
                <path d="M57.8136774,3.86304057 C57.3785434,3.25832086 56.8213133,2.77134165 56.1407226,2.40280545 C55.4602724,2.03412875 54.6379154,1.8499309 53.6739326,1.8499309 C53.1821763,1.8499309 52.6815685,1.92566136 52.1711254,2.07670079 C51.6608229,2.22830222 51.197448,2.45956817 50.7818437,2.77134165 C50.3658179,3.08325563 50.0304401,3.47581763 49.7752889,3.94804416 C49.5201376,4.42083269 49.3924215,4.9786248 49.3924215,5.620999 C49.3924215,6.2637947 49.5147986,6.79320545 49.7596932,7.20880975 C50.0047283,7.62483556 50.32999,7.97918108 50.7353376,8.27212731 C51.1406853,8.56535455 51.6027957,8.80645563 52.1211068,8.99514953 C52.6394179,9.18440545 53.1813333,9.37352086 53.7471341,9.56221477 C54.4444444,9.78912516 55.1461104,10.0350033 55.8532559,10.2994277 C56.5604014,10.5644141 57.196453,10.9090649 57.7622538,11.3343639 C58.327633,11.7596628 58.7896029,12.2984872 59.1476014,12.950556 C59.5056,13.6026248 59.6850208,14.4298994 59.6850208,15.4315366 C59.6850208,16.4337359 59.4936573,17.2985244 59.1117735,18.0259022 C58.7294681,18.753842 58.2332158,19.3542062 57.623157,19.8264327 C57.0126767,20.2990807 56.3153663,20.6486492 55.5310853,20.8755596 C54.7465233,21.1023295 53.9574652,21.2157144 53.1636301,21.2157144 C52.5583484,21.2157144 51.9536287,21.1541746 51.348909,21.0315166 C50.7437677,20.9082965 50.1674294,20.7239581 49.6193319,20.478642 C49.0708129,20.2331854 48.5605104,19.9212714 48.0881434,19.5429001 C47.6154953,19.1649503 47.1994695,18.7303782 46.840628,18.2386219 L48.5985864,16.9343438 C49.0331584,17.65287 49.6427957,18.2528126 50.4273577,18.7348743 C51.2116387,19.2167954 52.1330495,19.4578965 53.191871,19.4578965 C53.702314,19.4578965 54.2220301,19.37767 54.7514409,19.2167954 C55.2804301,19.0564829 55.7579957,18.8106047 56.1832946,18.4795825 C56.6085935,18.1491223 56.958162,17.7423696 57.2324215,17.2604485 C57.5062595,16.7783868 57.6435297,16.2160986 57.6435297,15.5733029 C57.6435297,14.874166 57.5062595,14.2929101 57.2324215,13.8295352 C56.958162,13.3665818 56.5944029,12.9789373 56.1407226,12.6670234 C55.6870423,12.3551094 55.1670452,12.0954621 54.5812932,11.8872384 C53.9951197,11.6794363 53.3807054,11.4716341 52.7381907,11.2634105 C52.0764272,11.0556083 51.4242179,10.8195653 50.7818437,10.5545789 C50.1389075,10.2901546 49.5625692,9.94508215 49.0522667,9.51964272 C48.5418237,9.0943438 48.1307154,8.56985061 47.8188014,7.94602265 C47.507028,7.3223352 47.3509305,6.55660043 47.3509305,5.64938036 C47.3509305,4.68539756 47.5445419,3.85376746 47.9321864,3.15420903 C48.3194093,2.45507211 48.8253563,1.87831226 49.4491842,1.42463197 C50.0730122,0.970951685 50.7627355,0.640350968 51.5190566,0.432267814 C52.2748158,0.224465663 53.0218638,0.120213333 53.7590767,0.120213333 C55.1199771,0.120213333 56.2826294,0.361314409 57.2466122,0.843376057 C58.210595,1.3252972 58.9381133,1.89728 59.4298695,2.55876244 L57.8136774,3.86304057 Z" id="Fill-5"></path>
                <polygon id="Fill-8" points="71.3088746 18.9625434 82.0550136 18.9625434 82.0550136 20.7772645 69.2673835 20.7772645 69.2673835 0.702508961 81.7148588 0.702508961 81.7148588 2.51708961 71.3088746 2.51708961 71.3088746 9.40715699 81.0344086 9.40715699 81.0344086 11.2218781 71.3088746 11.2218781"></polygon>
                <path d="M107.971988,17.4447306 C107.631693,17.9550331 107.220585,18.4375163 106.738523,18.8920396 C106.256602,19.3467034 105.698669,19.7471335 105.065568,20.0927679 C104.432046,20.4382618 103.733049,20.7115378 102.967455,20.9135794 C102.201861,21.1147779 101.365453,21.2157987 100.458093,21.2157987 C98.9455911,21.2157987 97.5468958,20.9509528 96.2617259,20.4218231 C94.9761345,19.8928338 93.8702449,19.160117 92.9443381,18.2243751 C92.0178692,17.2887736 91.294847,16.1785285 90.7751309,14.8927966 C90.2549933,13.6074862 89.9954865,12.1992367 89.9954865,10.6680482 C89.9954865,9.13700014 90.2599108,7.72903168 90.7893216,6.44329978 C91.3184513,5.15798939 92.0511682,4.04732272 92.9869101,3.11172129 C93.922371,2.17597935 95.0282606,1.44368401 96.3042979,0.914273262 C97.5800542,0.385284014 98.9648399,0.120297634 100.458093,0.120297634 C101.195306,0.120297634 101.918328,0.197433118 102.62716,0.350580072 C103.335991,0.504429534 104.002251,0.720661792 104.62636,0.998855341 C105.250047,1.27747039 105.816972,1.61200516 106.327415,2.00189763 C106.837858,2.39221161 107.263157,2.83296573 107.603452,3.3243005 L105.902116,4.57181591 C105.693752,4.25076932 105.415277,3.92958222 105.065568,3.60783312 C104.715719,3.28664602 104.30461,3.00311341 103.832384,2.75723527 C103.359595,2.51177864 102.844235,2.31339011 102.286864,2.16178867 C101.729213,2.01074925 101.128848,1.93501878 100.486474,1.93501878 C99.1820556,1.93501878 98.0147667,2.17064029 96.9848886,2.64160229 C95.9541675,3.11298581 95.0801058,3.74875642 94.3620011,4.54933563 C93.6433345,5.35033634 93.095237,6.27806968 92.7174277,7.33337864 C92.3389158,8.3885471 92.1505029,9.50019728 92.1505029,10.6680482 C92.1505029,11.8363206 92.3439739,12.9479708 92.7316184,14.0031392 C93.1188413,15.0585887 93.6718563,15.9861815 94.390242,16.7867607 C95.1083467,17.5877614 95.9826893,18.223532 97.0131295,18.6944941 C98.0430076,19.1658776 99.2007424,19.4010776 100.486474,19.4010776 C101.639291,19.4010776 102.735767,19.1650346 103.775621,18.692246 C104.814772,18.2200195 105.68476,17.4636984 106.384177,16.4239851 L107.971988,17.4447306 Z" id="Fill-10"></path>
                <polygon id="Fill-13" points="116.616487 0.702508961 118.657978 0.702508961 118.657978 9.40729749 129.602787 9.40729749 129.602787 0.702508961 131.644138 0.702508961 131.644138 20.7772645 129.602787 20.7772645 129.602787 11.2786409 118.657978 11.2786409 118.657978 20.7772645 116.616487 20.7772645"></polygon>
                <path d="M144.847653,13.6319054 L153.694208,13.6319054 L149.27093,2.97076989 L144.847653,13.6319054 Z M141.898942,20.777124 L139.658781,20.777124 L148.335189,0.702508961 L150.320057,0.702508961 L158.939702,20.777124 L156.6713,20.777124 L154.459802,15.5032487 L144.082199,15.5032487 L141.898942,20.777124 Z" id="Fill-15"></path>
                <polygon id="Fill-17" points="167.056631 20.7772645 169.098122 20.7772645 169.098122 0.702508961 167.056631 0.702508961"></polygon>
                <polygon id="Fill-19" points="193.795105 17.8000315 193.851868 17.8000315 193.851868 0.702508961 195.893359 0.702508961 195.893359 20.777124 193.341425 20.777124 181.659544 3.50959427 181.602922 3.50959427 181.602922 20.777124 179.56129 20.777124 179.56129 0.702508961 182.113224 0.702508961"></polygon>
            </g>
        </g>
    </g>
</svg>