<?xml version="1.0" encoding="UTF-8" standalone="no"?>
<svg width="128px" height="129px" viewBox="0 0 128 129" version="1.1" xmlns="http://www.w3.org/2000/svg" xmlns:xlink="http://www.w3.org/1999/xlink">
    <defs>
        <linearGradient x1="0%" y1="0%" x2="100%" y2="100%" id="lg9">
            <stop stop-color="#D2D5D9" offset="0%"></stop>
            <stop stop-color="#5E6B79" offset="100%"></stop>
        </linearGradient>
    </defs>
    <g id="Page-1" stroke="none" stroke-width="1" fill="none" fill-rule="evenodd">
        <g id="Desktop-HD" transform="translate(-656.000000, -264.000000)" fill="url(#lg9)" fill-rule="nonzero">
            <g id="basechain-01" transform="translate(719.710678, 328.710678) rotate(-315.000000) translate(-719.710678, -328.710678) translate(669.710678, 278.710678)">
                <path d="M79.5769905,66.7456866 C74.7801771,66.7453537 70.2114014,64.6940114 67.0182345,61.1069097 C63.8250676,57.519808 62.3109234,52.7377921 62.8561199,47.9619944 C63.7196067,40.1235657 70.1659031,33.8063352 78.013069,33.092914 C84.1054118,32.5170475 90.0287807,35.3042854 93.47775,40.3698111 C94.0840661,41.2544134 95.0868673,41.7822761 96.1577742,41.7805442 L96.3323087,41.7805442 C97.2250395,41.7832528 98.0800128,41.4198506 98.6985671,40.7747779 C99.3171213,40.1297052 99.6454015,39.2591257 99.6071283,38.3653274 C99.0927107,27.6686108 97.6711726,16.2377607 94.7844627,4.80460916 C94.7844627,4.80460916 81.434865,1.43081687 62.0201912,0.201891161 C60.9495497,0.133945022 59.8984715,0.512328118 59.1157255,1.24748492 C58.3329794,1.98264173 57.888135,3.00923234 57.8864779,4.08428379 C57.894921,5.35259545 58.5163871,6.538106 59.5537423,7.26476192 C64.4507313,10.7495912 67.1200257,16.5881228 66.5557934,22.5803061 C65.8438761,30.432543 59.5399632,36.8924577 51.7180589,37.7692754 C44.0789294,38.6544638 36.8129686,34.2371253 34.0675854,27.0386757 C31.3222022,19.8402261 33.7960523,11.692555 40.0770628,7.24635105 C41.1067713,6.52134782 41.7214908,5.34078936 41.7259551,4.07968107 L41.7259551,3.89557235 C41.7257808,2.82399211 41.2852024,1.79978741 40.5078762,1.06392569 C39.73055,0.328063976 38.685104,-0.0544873356 37.6175033,0.00627564671 C27.1431329,0.54939637 15.9821068,1.97393759 4.8210807,4.8023078 C4.8210807,4.8023078 1.37631956,18.4746816 0.177542681,38.2778758 C0.121889001,39.1836444 0.441412722,40.0723263 1.06076993,40.7343697 C1.68012714,41.396413 2.5444989,41.7732208 3.45006577,41.7759415 C4.52097267,41.7776733 5.52377383,41.2498107 6.13008994,40.3652084 C9.69456531,35.1283084 15.8900283,32.3388175 22.1643048,33.1458452 C29.7657444,34.0824983 35.8974192,40.3053731 36.747127,47.9320768 C37.6498932,55.6458457 33.1781486,62.9798118 25.9167723,65.6945974 C18.6553959,68.4093829 10.4828292,65.8027015 6.12320042,59.3813378 C5.51913133,58.5021936 4.51978447,57.9799185 3.45465878,57.9867142 L3.27782771,57.9867142 C2.38509695,57.9840056 1.53012361,58.3474078 0.911569383,58.9924805 C0.293015158,59.6375532 -0.0352650023,60.5081327 0.00300811671,61.401931 C0.517425781,72.0986476 1.93896388,83.5294977 4.82567372,94.9626492 C4.82567372,94.9626492 18.1752714,98.3364415 37.5899452,99.5653672 C38.6605868,99.6333134 39.7116649,99.2549303 40.494411,98.5197735 C41.277157,97.7846167 41.7220014,96.7580261 41.7236586,95.6829746 C41.7159584,94.4138484 41.0944083,93.2273198 40.0563942,92.5001951 C35.1594052,89.0153659 32.4901107,83.1768343 33.054343,77.184651 C33.7662603,69.3324141 40.0701732,62.8724994 47.8920775,61.9956816 C55.5335436,61.1058646 62.8041314,65.5226878 65.5512977,72.7235148 C68.2984641,79.9243419 65.8225545,88.07525 59.5376667,92.5209073 C58.5079581,93.2459106 57.8932386,94.426469 57.8887744,95.6875773 L57.8887744,95.871686 C57.8896848,96.9415978 58.329601,97.964056 59.1053194,98.6991939 C59.8810379,99.4343319 60.9242921,99.8174543 61.9903366,99.7586814 C72.464707,99.2155607 83.6234366,97.7910194 94.7844627,94.9626492 C94.7844627,94.9626492 98.2292239,81.2902754 99.4280008,61.4870813 C99.4836544,60.5813126 99.1641307,59.6926307 98.5447735,59.0305874 C97.9254163,58.368544 97.0610445,57.9917362 96.1554777,57.9890156 C95.08997,57.9809352 94.0896825,58.5023905 93.4846395,59.3813378 C90.3523024,63.9932259 85.1439857,66.7511227 79.5769905,66.7456866 Z" id="Shape"></path>
            </g>
        </g>
    </g>
</svg>