<?xml version="1.0" encoding="UTF-8"?>
<svg width="22px" height="22px" viewBox="0 0 22 22" version="1.1" xmlns="http://www.w3.org/2000/svg" xmlns:xlink="http://www.w3.org/1999/xlink">
    <!-- Generator: Sketch 52.2 (67145) - http://www.bohemiancoding.com/sketch -->
    <title>区块 线</title>
    <desc>Created with Sketch.</desc>
    <g id="Page-1" stroke="none" stroke-width="1" fill="none" fill-rule="evenodd">
        <g id="首页-copy" transform="translate(-266.000000, -106.000000)" fill="#FFFFFF">
            <g id="区块-线" transform="translate(266.000000, 106.000000)">
                <g id="Group">
                    <path d="M13.5384806,1.692309 L13.5384806,8.4615493 L20.3077209,8.4615493 L20.3077209,1.692309 L13.5384806,1.692309 Z M12.6923261,0 L21.1538711,0 C21.621189,-2.042713e-08 22.0000256,0.378836574 22.0000256,0.8461545 L22.0000256,9.3076995 C22.0000256,9.77501745 21.621189,10.153854 21.1538711,10.153854 C21.1538711,10.153854 21.1538711,10.153854 21.153871,10.153854 L12.692326,10.153854 C12.2250082,10.1538541 11.8461716,9.77501745 11.8461716,9.30769952 C11.8461716,9.30769951 11.8461716,9.3076995 11.8461716,9.30769948 L11.8461716,0.846154479 L11.8461716,0.846154607 C11.8461715,0.37883668 12.2250082,1.06281393e-07 12.6923261,1.06281393e-07 C12.6923261,1.06281391e-07 12.6923261,1.06281391e-07 12.6923261,1.0628139e-07 Z" id="Shape" fill-rule="nonzero"></path>
                    <path d="M8.461545,5.0769356 L1.6923047,5.0769356 L1.6923047,20.3077209 L16.92309,20.3077209 L16.92309,13.5384806 L8.461545,13.5384806 L8.461545,5.0769356 Z M10.153854,11.8461759 L17.7692574,11.8461759 C18.2365753,11.8461759 18.6154119,12.2250125 18.6154119,12.6923304 C18.6154119,12.6923304 18.6154119,12.6923304 18.6154119,12.6923304 L18.6154119,21.1538754 C18.6154119,21.6211933 18.2365753,22.0000299 17.7692574,22.0000299 L0.846167354,22.0000299 C0.37884939,22.0000299 1.28166666e-05,21.6211933 1.28166666e-05,21.1538754 L1.28166666e-05,4.23078541 L1.28166666e-05,4.23078554 C1.27461035e-05,3.76346761 0.37884939,3.38463104 0.846167317,3.38463104 L9.30771232,3.38463104 C9.77503023,3.38463102 10.1538668,3.76346761 10.1538668,4.23078554 C10.1538668,4.23078555 10.1538668,4.23078555 10.1538668,4.23078556 L10.1538668,11.846189 L10.153854,11.8461759 Z" id="Shape" fill-rule="nonzero"></path>
                    <polygon id="Path" points="16.0769484 4.2307725 17.7692574 4.2307725 17.7692574 5.9230815 16.0769484 5.9230815"></polygon>
                </g>
            </g>
        </g>
    </g>
</svg>