<?xml version="1.0" encoding="UTF-8"?>
<svg width="22px" height="22px" viewBox="0 0 22 22" version="1.1" xmlns="http://www.w3.org/2000/svg" xmlns:xlink="http://www.w3.org/1999/xlink">
    <!-- Generator: Sketch 52.2 (67145) - http://www.bohemiancoding.com/sketch -->
    <title>矿池地址</title>
    <desc>Created with Sketch.</desc>
    <g id="Page-1" stroke="none" stroke-width="1" fill="none" fill-rule="evenodd">
        <g id="首页-copy" transform="translate(-292.000000, -154.000000)" fill="#FFFFFF" fill-rule="nonzero">
            <g id="矿池地址" transform="translate(292.000000, 154.000000)">
                <path d="M8.8002036,17.6004072 L12.0230355,17.6004072 L15.0450527,14.57839 L13.2735651,12.8059313 L14.0496826,12.0298138 L16.2101968,14.190328 L16.5982566,14.5783879 L16.2101968,14.9664477 L13.027154,18.1494905 L9.35029233,18.1494905 L8.80021864,17.5994168 L8.8002036,17.6004072 Z M3.29849585,15.7233302 L3.29849585,9.52199522 L3.46148059,9.36095074 L7.03452967,5.78886845 L7.4225895,5.40080863 L7.81064932,5.78886845 L9.96922996,7.95520496 L9.19311246,8.73132246 L7.42259379,6.95498368 L4.39767621,9.97700087 L4.39767621,14.6231835 L4.55969394,14.4610233 L4.72073842,14.2999788 L6.27297343,14.2999788 L6.43401792,14.4610233 L9.57340438,17.6004098 L16.1704042,17.6004098 L16.3314487,17.7614543 L18.1427126,19.5727181 L19.9539764,17.7614543 L20.1150209,17.6004098 L21.9922547,17.6004098 L21.9922547,22.0000282 L-3.652348e-05,22.0000282 L-3.652348e-05,21.4499545 L-2.14844e-06,21.4499605 L-2.14844e-06,19.0245866 L0.161042336,18.8635421 L3.29849585,15.7233302 Z M19.7260093,6.74737133 C19.9954021,7.01163799 20.4267638,7.01163799 20.6961567,6.74737137 C20.8247778,6.61871138 20.8970161,6.44422217 20.8969772,6.26229872 L20.8969772,6.26229896 C20.8964403,6.08029838 20.8238937,5.90590714 20.6951867,5.77722632 L16.2228006,1.30484026 C15.953195,1.04109134 15.5222588,1.04109134 15.2526532,1.30484024 C14.9857632,1.57315677 14.9857632,2.00667114 15.2526532,2.27498766 L16.6108583,3.63319276 L16.9989181,4.02125259 L16.6108583,4.40931241 L8.58871225,12.4392143 C8.32182228,12.7075309 8.32182228,13.1410452 8.58871226,13.4093618 C8.85746273,13.6751947 9.29010698,13.6751947 9.55885964,13.4093618 L17.5848944,5.38332707 L17.9729542,4.99526724 L18.361014,5.38332707 L19.7192191,6.74153216 L19.7260093,6.74737133 Z M20.2110819,8.04736874 C19.737757,8.04734891 19.283927,7.85883475 18.9498897,7.52348883 L17.9797423,6.55334141 L10.3427471,14.1913034 C9.64587262,14.8870263 8.51723908,14.8870263 7.82037109,14.1913034 C7.12249547,13.4934364 7.12248688,12.3619648 7.82035303,11.6640935 C7.82035905,11.6640874 7.82036507,11.6640814 7.82037109,11.6640754 L15.4583331,4.02611339 L14.4881857,3.05596597 L14.4881856,3.05596584 C13.7900414,2.35836737 13.7895988,1.22689574 14.4871974,0.528755866 C14.4875267,0.52842627 14.4878562,0.528096804 14.4881858,0.527767466 C15.1836015,-0.168769708 16.312003,-0.169676349 17.0085423,0.525739381 C17.0092189,0.526414876 17.0098949,0.527090917 17.0105704,0.527767502 L21.4829565,5.00015357 C21.817417,5.33454533 22.004892,5.78839684 22.0039252,6.26134583 L22.0039252,6.26133551 C22.0036941,6.73461751 21.8152153,7.18837018 21.4800539,7.52252995 C21.1455568,7.8614485 20.6892217,8.05222998 20.2130351,8.05223857 L20.2110819,8.04736874 Z M1.10014523,19.4776518 L1.10014523,20.8998868 L17.9224949,20.8998868 L17.7614504,20.7388423 L15.7241406,18.7015325 L9.11938487,18.7015325 L8.95834039,18.5404881 L5.82088752,15.4001133 L5.17767895,15.4001133 L1.10305507,19.4747372 L1.10014523,19.4776518 Z M18.5395054,20.7388441 L18.3784609,20.8998885 L20.9008369,20.8998885 L20.9008369,18.7005735 L20.578747,18.7005735 L18.5395054,20.7388441 Z" id="Shape"></path>
            </g>
        </g>
    </g>
</svg>