<?xml version="1.0" encoding="UTF-8"?>
<svg width="40px" height="40px" viewBox="0 0 40 40" version="1.1" xmlns="http://www.w3.org/2000/svg" xmlns:xlink="http://www.w3.org/1999/xlink">
    <!-- Generator: Sketch 52.2 (67145) - http://www.bohemiancoding.com/sketch -->
    <title>Group 6</title>
    <desc>Created with Sketch.</desc>
    <defs>
        <polygon id="path-1" points="8e-05 0 40 0 40 39.99992 8e-05 39.99992"></polygon>
    </defs>
    <g id="Page-1" stroke="none" stroke-width="1" fill="none" fill-rule="evenodd">
        <g id="首页-copy" transform="translate(-20.000000, -828.000000)">
            <g id="Group-9" transform="translate(20.000000, 828.000000)">
                <g id="Group-6">
                    <g id="Group-3">
                        <mask id="mask-2" fill="white">
                            <use xlink:href="#path-1"></use>
                        </mask>
                        <g id="Clip-2"></g>
                        <path d="M20.00008,-8e-05 C31.04568,-8e-05 40.00008,8.95432 40.00008,19.99992 C40.00008,31.04552 31.04568,39.99992 20.00008,39.99992 C8.95448,39.99992 8e-05,31.04552 8e-05,19.99992 C8e-05,8.95432 8.95448,-8e-05 20.00008,-8e-05" id="Fill-1" fill="#FF8E12" mask="url(#mask-2)"></path>
                    </g>
                    <path d="M24.00008,24.99992 C23.64168,26.29912 22.30048,27.06432 21.00008,26.71192 L17.00008,25.61592 L18.40008,20.60792 L22.08008,21.59992 C23.54568,22.00272 24.40728,23.51672 24.00488,24.98272 C24.00328,24.98832 24.00168,24.99432 24.00008,24.99992 Z M20.35208,14.09592 L23.36808,14.89592 C24.57928,15.22272 25.29648,16.46992 24.96968,17.68152 C24.96928,17.68352 24.96848,17.68592 24.96808,17.68792 C24.61528,18.91752 23.33608,19.63232 22.10408,19.28792 L19.14408,18.48792 L20.35208,14.09592 Z M25.51208,20.68792 C27.04928,21.10672 28.63528,20.20072 29.05608,18.66392 C29.73968,16.15472 28.26088,13.56592 25.75208,12.87992 L25.08808,12.69592 L26.08808,9.03192 L23.57608,8.34392 L22.58408,11.99992 L21.04008,11.57592 L22.04008,7.91992 L19.52808,7.19992 L18.52808,10.86392 L14.46408,9.75192 L13.66408,12.01592 L15.35208,12.47992 C16.01648,12.66272 16.40728,13.34952 16.22448,14.01432 L16.22408,14.01592 L13.60008,23.65592 C13.48328,24.07872 13.04768,24.32832 12.62408,24.21592 L11.08008,23.79192 L9.81608,26.14392 L14.06408,27.30392 L13.06408,30.96792 L15.57608,31.65592 L16.56008,27.99992 L18.10408,28.42392 L17.10408,32.07992 L19.61608,32.76792 L20.61608,29.10392 L22.21608,29.55192 C24.93928,30.29672 27.75048,28.69312 28.49568,25.96952 C28.49568,25.96912 28.49568,25.96872 28.49608,25.96792 C29.13008,23.68632 27.79448,21.32272 25.51288,20.68832 C25.51248,20.68832 25.51248,20.68792 25.51208,20.68792 Z" id="Fill-4" fill="#FFFFFF"></path>
                </g>
            </g>
        </g>
    </g>
</svg>