<?xml version="1.0" encoding="UTF-8"?>
<svg width="18px" height="16px" viewBox="0 0 18 16" version="1.1" xmlns="http://www.w3.org/2000/svg" xmlns:xlink="http://www.w3.org/1999/xlink">
    <!-- Generator: Sketch 52.2 (67145) - http://www.bohemiancoding.com/sketch -->
    <title>system-type</title>
    <desc>Created with Sketch.</desc>
    <g id="Page-1" stroke="none" stroke-width="1" fill="none" fill-rule="evenodd">
        <g id="首页" transform="translate(-342.000000, -58.000000)" fill="#FFFFFF" fill-rule="nonzero">
            <g id="Group-15">
                <g id="system-type" transform="translate(342.000000, 58.000000)">
                    <path d="M0.5136748,0.6738324 L3.26251784,0.6738324 L3.26251784,2.50806305 L0.5136748,2.50806305 L0.5136748,0.6738324 Z M5.09507271,0.6738324 L17.4648664,0.6738324 L17.4648664,2.50806305 L5.09507271,2.50806305 L5.09507271,0.6738324 Z M0.5136748,7.09365042 L3.26251784,7.09365042 L3.26251784,8.92788107 L0.5136748,8.92788107 L0.5136748,7.09365042 Z M5.09507271,7.09365042 L17.4648664,7.09365042 L17.4648664,8.92788107 L5.09507271,8.92788107 L5.09507271,7.09365042 Z M0.5136748,13.513447 L3.26251784,13.513447 L3.26251784,15.3476776 L0.5136748,15.3476776 L0.5136748,13.513447 Z M5.09507271,13.513447 L17.4648664,13.513447 L17.4648664,15.3476776 L5.09507271,15.3476776 L5.09507271,13.513447 Z" id="Shape"></path>
                </g>
            </g>
        </g>
    </g>
</svg>