<?xml version="1.0" encoding="UTF-8"?>
<svg width="16px" height="18px" viewBox="0 0 16 18" version="1.1" xmlns="http://www.w3.org/2000/svg" xmlns:xlink="http://www.w3.org/1999/xlink">
    <!-- Generator: Sketch 52.2 (67145) - http://www.bohemiancoding.com/sketch -->
    <title>提醒</title>
    <desc>Created with Sketch.</desc>
    <g id="Page-1" stroke="none" stroke-width="1" fill="none" fill-rule="evenodd">
        <g id="首页" transform="translate(-15.000000, -57.000000)" fill="#FFFFFF" fill-rule="nonzero">
            <g id="Group-15">
                <g id="提醒" transform="translate(15.000000, 57.000000)">
                    <path d="M11.1841513,14.8666935 C10.8196835,16.4873627 9.62434946,17.4333703 8.0000128,17.4333703 C6.37567829,17.4333702 5.18033569,16.4873692 4.81587433,14.8666935 L0.666678095,14.8666935 L0.666678095,13.4000244 L1.40001157,13.4000244 L1.40001157,8.26669222 L1.40001154,8.26727755 C1.40001201,5.18035599 3.53902418,2.50550522 6.55038081,1.82668412 C6.46201762,1.43143128 6.71080031,1.03938394 7.10605333,0.951020755 C7.15878335,0.93923233 7.21265484,0.933307663 7.2666866,0.933354627 L8.73335569,0.933354627 C9.13836453,0.933333849 9.46670632,1.2616427 9.4667278,1.66665157 C9.46673056,1.72043863 9.46081579,1.77406262 9.44909023,1.8265561 C12.3970937,2.48655686 14.6000396,5.11923376 14.6000396,8.26669836 L14.6000396,13.4000305 L15.333373,13.4000305 L15.333373,14.8666996 L11.1841768,14.8666996 L11.1841513,14.8666935 Z M9.66469071,14.8666935 L6.33535207,14.8666935 C6.60595239,15.6073617 7.18895307,15.9666947 8.00002139,15.9666947 C8.81108972,15.9666947 9.3940904,15.6073617 9.66469071,14.8666935 Z M13.1333815,13.4000244 L13.13336,8.26669222 C13.13336,5.43163228 10.8350878,3.13336007 8.00002784,3.13336007 C5.1649679,3.13336007 2.86669569,5.43163228 2.86669569,8.26669222 L2.86669569,13.4000244 L13.1333815,13.4000244 Z" id="Shape"></path>
                </g>
            </g>
        </g>
    </g>
</svg>