<?xml version="1.0" encoding="UTF-8"?>
<svg width="22px" height="22px" viewBox="0 0 22 22" version="1.1" xmlns="http://www.w3.org/2000/svg" xmlns:xlink="http://www.w3.org/1999/xlink">
    <!-- Generator: Sketch 52.2 (67145) - http://www.bohemiancoding.com/sketch -->
    <title>形状</title>
    <desc>Created with Sketch.</desc>
    <g id="Page-1" stroke="none" stroke-width="1" fill="none" fill-rule="evenodd">
        <g id="首页" transform="translate(-261.000000, -133.000000)" fill="#000000" fill-rule="nonzero">
            <g id="编组-5" transform="translate(261.000000, 133.000000)">
                <g id="历史">
                    <path d="M11.0000141,0.244446271 C5.10775625,0.244446271 0.244448635,5.10775388 0.244448635,11.0000117 C0.244448635,16.8922695 5.10775625,21.7555772 11.0000141,21.7555772 C16.8922719,21.7555772 21.7555795,16.8922695 21.7555795,11.0000117 C21.7555795,5.10775388 16.8922719,0.244446271 11.0000141,0.244446271 Z M11.0425882,19.5910217 C6.31819439,19.5910217 2.49414092,15.7665192 2.49414092,11.0425745 C2.49414092,6.31818068 6.31819439,2.49412721 11.0425882,2.49412721 C15.7660839,2.49412721 19.5905864,6.31818068 19.5905864,11.0425745 C19.5905864,15.7660702 15.7665329,19.5905727 11.0425882,19.5905727 L11.0425882,19.5910217 Z M10.948477,11.6879164 L10.948477,6.11070798 L9.044294,6.11070798 L9.044294,13.4442146 L14.9110047,13.4442146 L14.9110047,11.6874721 L10.9489118,11.6874721 L10.948477,11.6879164 Z" id="形状"></path>
                </g>
            </g>
        </g>
    </g>
</svg>