<?xml version="1.0" encoding="UTF-8"?>
<svg width="20px" height="22px" viewBox="0 0 20 22" version="1.1" xmlns="http://www.w3.org/2000/svg" xmlns:xlink="http://www.w3.org/1999/xlink">
    <!-- Generator: Sketch 52.2 (67145) - http://www.bohemiancoding.com/sketch -->
    <title>提醒</title>
    <desc>Created with Sketch.</desc>
    <g id="Page-1" stroke="none" stroke-width="1" fill="none" fill-rule="evenodd">
        <g id="首页" transform="translate(-261.000000, -97.000000)" fill="#000000" fill-rule="nonzero">
            <g id="编组-3" transform="translate(261.000000, 97.000000)">
                <g id="提醒">
                    <path d="M14.3204477,17.9880414 C13.8537746,20.063184 12.3232411,21.2744741 10.2434026,21.2744741 C8.16356691,21.2744741 6.63302242,20.0631923 6.16635761,17.9880414 L0.853630153,17.9880414 L0.853630153,16.1100841 L1.7926074,16.1100841 L1.7926074,9.53724612 L1.79260737,9.5379956 C1.79260796,5.58542937 4.53144896,2.16048817 8.38726009,1.29130983 C8.27411779,0.785218882 8.59266494,0.283232352 9.09875611,0.170090068 C9.16627286,0.154995893 9.23525117,0.147409811 9.30443469,0.147469946 L11.1823919,0.147469946 C11.7009747,0.147443341 12.1213912,0.567817643 12.1214187,1.08640043 C12.1214222,1.15527063 12.1138488,1.22393203 12.0988351,1.2911459 C15.8735273,2.13622625 18.6942306,5.50716703 18.6942306,9.53725398 L18.6942306,16.110092 L19.6332078,16.110092 L19.6332078,17.9880492 L14.3204804,17.9880492 L14.3204477,17.9880414 Z M12.374895,17.9880414 L8.11193229,17.9880414 C8.45841523,18.9364102 9.20490287,19.3965086 10.2434136,19.3965086 C11.2819244,19.3965086 12.028412,18.9364102 12.374895,17.9880414 Z M16.8162874,16.1100841 L16.8162599,9.53724612 C16.8162599,5.90716938 13.8734986,2.96440814 10.2434219,2.96440814 C6.61334514,2.96440814 3.6705839,5.90716938 3.6705839,9.53724612 L3.6705839,16.1100841 L16.8162874,16.1100841 Z" id="Shape"></path>
                </g>
            </g>
        </g>
    </g>
</svg>