<?xml version="1.0" encoding="UTF-8"?>
<svg width="23px" height="20px" viewBox="0 0 23 20" version="1.1" xmlns="http://www.w3.org/2000/svg" xmlns:xlink="http://www.w3.org/1999/xlink">
    <!-- Generator: Sketch 52.2 (67145) - http://www.bohemiancoding.com/sketch -->
    <title>形状</title>
    <desc>Created with Sketch.</desc>
    <g id="Page-1" stroke="none" stroke-width="1" fill="none" fill-rule="evenodd">
        <g id="首页" transform="translate(-20.000000, -141.000000)" fill="#FFFFFF" fill-rule="nonzero">
            <g id="刷新" transform="translate(16.000000, 135.000000)">
                <g transform="translate(4.000000, 6.000000)" id="形状">
                    <path d="M15.6687682,15.8974635 C14.3750167,16.7599645 12.9375151,17.2630901 11.4281383,17.191215 L10.6375124,17.191215 C10.4937622,17.191215 10.350012,17.1193399 10.2062619,17.1193399 C10.1343868,17.1193399 9.99063663,17.0474648 9.91876154,17.0474648 C9.77501137,17.0474648 9.63126121,16.9755898 9.48751104,16.9037147 C9.41563596,16.9037147 9.34376087,16.8318396 9.27188579,16.8318396 C9.12813562,16.7599645 8.91251037,16.6880894 8.7687602,16.6880894 C8.69688512,16.6880894 8.69688512,16.6880894 8.62501004,16.6162143 C8.40938479,16.5443393 8.26563462,16.4724642 8.05000937,16.328714 C7.40313361,15.9693386 6.90000803,15.6099632 6.39688244,15.1068376 C6.25313228,14.9630874 6.10938211,14.8193373 5.96563194,14.603712 C5.96563194,14.603712 5.89375686,14.5318369 5.89375686,14.4599618 C4.88750569,13.2380854 4.31250502,11.6568336 4.31250502,9.93183156 L6.25313228,9.93183156 L3.0906286,5.33182621 L3.66374024e-15,9.93183156 L1.94062726,9.93183156 C1.94062726,11.9443339 2.58750301,13.8130861 3.66562927,15.3943379 C3.66562927,15.3943379 3.66562927,15.466213 3.73750435,15.466213 C3.88125452,15.6099632 3.9531296,15.7537133 4.09687977,15.8974635 C4.16875485,15.9693386 4.16875485,16.0412137 4.24062993,16.0412137 C4.3843801,16.2568389 4.60000535,16.4724642 4.8156306,16.6162143 L4.88750569,16.6880894 C5.53438144,17.3349652 6.25313228,17.8380908 7.0437582,18.3412163 L7.11563328,18.3412163 C7.33125853,18.4849665 7.54688378,18.5568416 7.83438412,18.7005918 C7.9062592,18.7005918 7.97813428,18.7724669 7.97813428,18.7724669 L8.62501004,18.9880921 C8.69688512,18.9880921 8.84063529,19.0599672 8.91251037,19.0599672 C9.12813562,19.1318423 9.27188579,19.1318423 9.48751104,19.2037174 C9.63126121,19.2037174 9.70313629,19.2755924 9.84688646,19.2755924 L9.99063663,19.2755924 C10.2062619,19.2755924 10.350012,19.3474675 10.4937622,19.3474675 L10.7093875,19.3474675 C10.9968878,19.3474675 11.3562632,19.4193426 11.6437635,19.4193426 C13.5843908,19.4193426 15.5250181,18.8443419 17.1062699,17.6943406 C17.6093955,17.3349652 17.7531457,16.6162143 17.3937702,16.1130888 C16.8906447,15.6818383 16.1718938,15.5380881 15.6687682,15.8974635 Z M21.0593995,9.93183156 C21.0593995,7.91932922 20.4125238,6.05057705 19.4062726,4.54120029 C19.4062726,4.54120029 19.4062726,4.46932521 19.3343975,4.46932521 C19.1906473,4.25369996 19.0468972,4.10994979 18.903147,3.89432454 C18.903147,3.89432454 18.903147,3.82244945 18.8312719,3.82244945 C17.8250207,2.67244812 16.6031443,1.73807203 15.2375177,1.16307136 C15.1656426,1.16307136 15.1656426,1.16307136 15.0937676,1.09119628 L14.4468918,0.875571025 C14.3750167,0.875571025 14.3031416,0.803695942 14.2312666,0.803695942 C14.0875164,0.731820858 13.8718911,0.659945775 13.6562659,0.588070691 C13.5125157,0.588070691 13.4406406,0.516195607 13.2968905,0.516195607 C13.2250154,0.516195607 13.2250154,0.516195607 13.1531403,0.444320524 C13.0093901,0.444320524 12.86564,0.37244544 12.7218898,0.37244544 C12.6500147,0.37244544 12.5062646,0.37244544 12.4343895,0.300570356 C12.1468891,0.300570356 11.9312639,0.300570356 11.6437635,0.228695273 L11.5000134,0.228695273 C9.55938612,0.228695273 7.69063395,0.803695942 6.03750703,1.95369728 C5.46250636,2.45682287 5.39063127,3.1755737 5.75000669,3.67869929 C6.10938211,4.18182487 6.82813295,4.32557504 7.33125853,3.96619962 C8.55313495,3.10369862 10.0625117,2.67244812 11.5718885,2.67244812 L12.4343895,2.67244812 C12.5781396,2.7443232 12.7218898,2.7443232 12.9375151,2.81619828 C13.0093901,2.81619828 13.0812652,2.81619828 13.1531403,2.88807337 C13.2968905,2.95994845 13.5125157,2.95994845 13.6562659,3.03182353 C13.728141,3.03182353 13.728141,3.03182353 13.8000161,3.10369862 C14.0156413,3.1755737 14.1593915,3.24744879 14.3750167,3.31932387 L14.4468918,3.31932387 C15.5250181,3.75057437 16.4593942,4.46932521 17.178145,5.40370129 C18.1843962,6.6974528 18.8312719,8.27870464 18.8312719,10.0037066 L16.8906447,10.0037066 L19.9812733,14.603712 L23.0000268,9.93183156 L21.0593995,9.93183156 Z"></path>
                </g>
            </g>
        </g>
    </g>
</svg>