<?xml version="1.0" encoding="UTF-8"?>
<svg width="22px" height="6px" viewBox="0 0 22 6" version="1.1" xmlns="http://www.w3.org/2000/svg" xmlns:xlink="http://www.w3.org/1999/xlink">
    <!-- Generator: Sketch 52.2 (67145) - http://www.bohemiancoding.com/sketch -->
    <title>省略</title>
    <desc>Created with Sketch.</desc>
    <g id="Page-1" stroke="none" stroke-width="1" fill="none" fill-rule="evenodd">
        <g id="首页" transform="translate(-338.000000, -63.000000)" fill="#FFFFFF" fill-rule="nonzero">
            <g id="省略" transform="translate(338.000000, 63.000000)">
                <path d="M2.91500339,5.69501594 C1.43000166,5.69501594 0.220000256,4.48501453 0.220000256,3.0000128 C0.220000256,1.51501107 1.43000166,0.305009664 2.91500339,0.305009664 C4.40000512,0.305009664 5.61000653,1.51501107 5.61000653,3.0000128 C5.61000653,4.48501453 4.40000512,5.69501594 2.91500339,5.69501594 Z M11.0000128,5.69501594 C9.51501107,5.69501594 8.30500966,4.48501453 8.30500966,3.0000128 C8.30500966,1.51501107 9.51501107,0.305009664 11.0000128,0.305009664 C12.4850145,0.305009664 13.6950159,1.51501107 13.6950159,3.0000128 C13.6950159,4.48501453 12.4850145,5.69501594 11.0000128,5.69501594 Z M19.0850222,5.69501594 C17.6000205,5.69501594 16.3900191,4.48501453 16.3900191,3.0000128 C16.3900191,1.51501107 17.6000205,0.305009664 19.0850222,0.305009664 C20.5700239,0.305009664 21.7800253,1.51501107 21.7800253,3.0000128 C21.7800253,4.48501453 20.5700239,5.69501594 19.0850222,5.69501594 Z" id="Shape"></path>
            </g>
        </g>
    </g>
</svg>