<?xml version="1.0" encoding="UTF-8"?>
<svg width="92px" height="115px" viewBox="0 0 92 115" version="1.1" xmlns="http://www.w3.org/2000/svg" xmlns:xlink="http://www.w3.org/1999/xlink">
    <!-- Generator: Sketch 52.2 (67145) - http://www.bohemiancoding.com/sketch -->
    <title>编组</title>
    <desc>Created with Sketch.</desc>
    <defs>
        <path d="M48.0440801,-1.20792265e-13 C48.0440801,-1.20792265e-13 40.4422345,4.54279425 31.1137392,12.8062646 C30.6865565,13.1832778 30.4328271,13.7201274 30.4141916,14.2899478 C30.3955562,14.8590514 30.6127313,15.4095193 31.0133943,15.8137692 C31.483582,16.2904114 32.15876,16.5032877 32.8181696,16.3814393 C36.2571339,15.7248916 39.7957264,16.8122092 42.266362,19.2871648 C44.3972584,21.4187946 45.514671,24.3582076 45.3397841,27.3700128 C45.1648972,30.381818 43.7134794,33.1785967 41.3496394,35.0579287 C37.4842091,38.1550278 31.815437,38.0976874 28.0137974,34.9296295 C25.0521883,32.4790436 23.659544,28.610716 24.3762935,24.828399 C24.5002912,24.166834 24.2902836,23.4859165 23.8136451,23.0114246 L23.7355194,22.9340151 C23.3398737,22.536216 22.7994445,22.3183224 22.2375129,22.3297905 C21.6770147,22.3419753 21.1444698,22.582805 20.7638758,22.9963728 C16.241903,27.9756709 11.7959056,33.6846258 8,40.0443944 C8,40.0443944 12.4302289,47.472845 20.5079962,56.6422938 C20.9530977,57.1476062 21.5881378,57.4464931 22.2625991,57.4679958 C22.9370604,57.4880649 23.590736,57.230033 24.068808,56.7533909 C24.6278726,56.1864375 24.8787349,55.3843885 24.741119,54.6002583 C24.1132464,50.877432 25.5209425,47.0986988 28.4330959,44.6882511 C32.2376025,41.5158928 37.9063746,41.4470843 41.7696546,44.5319985 C45.5555257,47.5316189 46.8213054,52.7202095 44.8437934,57.1375716 C42.8648479,61.554217 38.1479192,64.0743281 33.3829682,63.2593775 C32.6038615,63.1239108 31.806836,63.3754918 31.2449044,63.9331274 L31.1624782,64.0155542 C30.6865565,64.4914796 30.4278099,65.1422933 30.4457286,65.8138929 C30.4643641,66.4862093 30.7589482,67.1205376 31.2599561,67.5677928 C36.153922,71.9779874 41.7431349,76.3036048 47.9566367,80.0042117 C47.9566367,80.0042117 55.559199,75.4614175 64.8876943,67.1979471 C65.314877,66.8209339 65.5678896,66.2840843 65.5865251,65.7149807 C65.6051606,65.1458771 65.3887022,64.5946924 64.9880392,64.1911592 C64.5128343,63.714517 63.8333557,63.503791 63.1703624,63.6270729 C59.2612104,64.370348 55.2710657,62.8572779 52.8427183,59.7121562 C49.8818259,55.9198046 49.9226806,50.432327 52.9330287,46.6672121 C55.9584285,42.8404563 61.2021682,41.5689326 65.6338306,43.588032 C70.0640595,45.6071313 72.5361287,50.3957725 71.6201227,55.1844138 C71.4982753,55.842395 71.7104332,56.5190119 72.1863549,56.9884866 L72.2644806,57.0673296 C72.6601263,57.4651287 73.2005555,57.6830223 73.7624871,57.6715542 C74.323702,57.6600861 74.8555302,57.4185397 75.2361242,57.0049719 C79.7588138,52.024957 84.2048112,46.3167189 88,39.9562335 C88,39.9562335 83.5690543,32.5284997 75.4920038,23.3597676 C75.0469023,22.8537385 74.4118622,22.5548516 73.7381176,22.5340657 C73.0636563,22.512563 72.4099807,22.7713116 71.9319088,23.2472371 C71.3714107,23.8141904 71.1205483,24.617673 71.258881,25.4018031 C71.8853201,29.1246294 70.4783407,32.9033627 67.5654706,35.3152438 C63.7623975,38.4861687 58.0929087,38.5549772 54.2296286,35.4707797 C50.4401738,32.4718761 49.1722439,27.2804184 51.1504726,22.8623396 C53.1294181,18.4435439 57.8484971,15.9234328 62.6155983,16.7398169 C63.3939883,16.8752836 64.1917305,16.6237026 64.7543789,16.0660671 L64.8360883,15.9836402 C65.3105765,15.5084315 65.5693231,14.8590514 65.5514044,14.1881685 C65.5327689,13.5165689 65.2403351,12.8829574 64.7400439,12.4357021 C59.8467948,8.02479085 54.2575819,3.70132368 48.0440801,-1.20792265e-13 Z" id="path-1"></path>
    </defs>
    <g id="Page-1" stroke="none" stroke-width="1" fill="none" fill-rule="evenodd">
        <g id="ios手机登陆-1" transform="translate(-140.000000, -122.000000)">
            <g id="编组" transform="translate(140.000000, 122.000000)">
                <text id="打开新世界" font-family="PingFangSC-Medium, PingFang SC" font-size="16" font-weight="400" line-spacing="24" letter-spacing="3" fill="#C4C4C4">
                    <tspan x="0" y="112">打开新世界</tspan>
                </text>
                <mask id="mask-2" fill="white">
                    <use xlink:href="#path-1"></use>
                </mask>
                <use id="Clip-2" fill="#D8D8D8" xlink:href="#path-1"></use>
            </g>
        </g>
    </g>
</svg>