<?xml version="1.0" encoding="UTF-8"?>
<svg width="22px" height="22px" viewBox="0 0 22 22" version="1.1" xmlns="http://www.w3.org/2000/svg" xmlns:xlink="http://www.w3.org/1999/xlink">
    <!-- Generator: Sketch 52.2 (67145) - http://www.bohemiancoding.com/sketch -->
    <title>home</title>
    <desc>Created with Sketch.</desc>
    <g id="Page-1" stroke="none" stroke-width="1" fill="none" fill-rule="evenodd">
        <g id="首页-copy" transform="translate(-27.000000, -911.000000)" fill="#666666" fill-rule="nonzero">
            <g id="Group-7" transform="translate(0.000000, 899.000000)">
                <g id="home" transform="translate(27.000000, 12.000000)">
                    <path d="M21.1337746,8.90644396 L12.502331,0.859633813 C11.9959436,0.372324652 11.434986,0.0772579024 10.7681532,0.0755391504 C10.1089258,0.0755391504 9.51574154,0.37885591 9.06216289,0.82856737 L0.747786026,8.90102989 C0.333523826,9.32504601 0.28647299,9.9472772 0.443867704,10.4988677 C0.673793753,11.0456027 1.18477872,11.3705328 1.77779113,11.3705328 L2.93794873,11.3679117 L2.94912062,19.5876283 C2.94912062,20.8614813 3.98505542,21.8973302 5.25890846,21.8973302 L9.2194287,21.8946661 L9.2194287,15.1948419 L12.6139639,15.1921778 L12.6113428,21.894752 L16.5975584,21.8974161 C17.8714114,21.8974161 18.8821235,20.8650047 18.8821235,19.5911087 L18.8874946,11.3679546 L20.0825429,11.3625835 C20.6740084,11.3625835 21.2004622,11.0468488 21.4312046,10.5022622 C21.6621663,9.95893023 21.5449637,9.33009043 21.1337746,8.90644385 Z M19.8893552,10.1212149 L17.6333213,10.1191524 L17.647544,19.5876283 C17.647544,20.1667188 17.1786255,20.6518795 16.5993631,20.6518795 L13.8601021,20.6492154 L13.8627661,14.9719627 C13.8627661,14.3949347 13.4238398,13.9533873 12.9000502,13.9533873 L8.93879946,13.9533873 C8.41470901,13.9533873 7.97337647,14.4217902 7.97337647,14.9988182 L7.97337647,20.6492154 L5.25826393,20.6492154 C4.67921638,20.6492154 4.20909474,20.1667188 4.20909474,19.5876712 L4.189458,10.1218165 L1.80735367,10.1191524 C1.63814253,10.1164883 1.45286107,10.0171015 1.64819723,9.78197623 L9.98337099,1.68742774 C10.1741095,1.49668924 10.468145,1.3500797 10.7708172,1.3500797 C11.0708254,1.35085313 11.3572554,1.46592358 11.5762674,1.71398246 L20.2287228,9.78287857 C20.4262933,9.94461313 20.2356407,10.1164883 19.8893552,10.1212149 Z" id="Shape"></path>
                </g>
            </g>
        </g>
    </g>
</svg>