<?xml version="1.0" encoding="UTF-8"?>
<svg width="19px" height="22px" viewBox="0 0 19 22" version="1.1" xmlns="http://www.w3.org/2000/svg" xmlns:xlink="http://www.w3.org/1999/xlink">
    <!-- Generator: Sketch 52.2 (67145) - http://www.bohemiancoding.com/sketch -->
    <title>人物</title>
    <desc>Created with Sketch.</desc>
    <g id="Page-1" stroke="none" stroke-width="1" fill="none" fill-rule="evenodd">
        <g id="首页-copy" transform="translate(-328.000000, -911.000000)" fill="#666666">
            <g id="Group-7" transform="translate(0.000000, 899.000000)">
                <g id="人物" transform="translate(328.000000, 12.000000)">
                    <path d="M9.42857143,12.5714286 C6.82617735,12.5684518 4.71726251,10.4595369 4.71428571,7.85714286 L4.71428571,4.71428571 C4.71428571,2.11065761 6.82494332,3.48927236e-16 9.42857143,0 C12.0321995,-5.23390854e-16 14.1428571,2.11065761 14.1428571,4.71428571 L14.1428571,7.85714286 C14.1398803,10.4595369 12.0309655,12.5684518 9.42857143,12.5714286 Z M9.42857143,1.57142857 C7.6936047,1.57332308 6.2876088,2.97931898 6.28571429,4.71428571 L6.28571429,7.85714286 C6.28571429,9.59289493 7.69281936,11 9.42857143,11 C11.1643235,11 12.5714286,9.59289493 12.5714286,7.85714286 L12.5714286,4.71428571 C12.5695341,2.97931898 11.1635382,1.57332308 9.42857143,1.57142857 Z" id="Shape" fill-rule="nonzero"></path>
                    <path d="M15.125,22 L3.73214286,22 C1.67194688,21.9975646 0.0024353823,20.3280531 0,18.2678571 L0,16.445 C0.000694015604,15.2393316 0.582651946,14.10796 1.56308036,13.40625 L5.82901786,10.3616071 L6.74241071,11.6383929 L2.47647321,14.6854911 C1.90877095,15.0917869 1.57180494,15.7468868 1.57142857,16.445 L1.57142857,18.2678571 C1.57142857,18.8409142 1.7990746,19.3905003 2.20428713,19.7957129 C2.60949967,20.2009254 3.1590858,20.4285714 3.73214286,20.4285714 L15.125,20.4285714 C16.3183295,20.4285714 17.2857143,19.4611867 17.2857143,18.2678571 L17.2857143,16.445 C17.2848632,15.7474068 16.9479497,15.0929573 16.3806696,14.6869643 L12.1147321,11.6383929 L13.028125,10.3616071 L17.2940625,13.40625 C18.2744909,14.10796 18.8564488,15.2393316 18.8571429,16.445 L18.8571429,18.2678571 C18.8547075,20.3280531 17.185196,21.9975646 15.125,22 Z" id="Path"></path>
                </g>
            </g>
        </g>
    </g>
</svg>