<?xml version="1.0" encoding="UTF-8"?>
<svg width="22px" height="21px" viewBox="0 0 22 21" version="1.1" xmlns="http://www.w3.org/2000/svg" xmlns:xlink="http://www.w3.org/1999/xlink">
    <!-- Generator: Sketch 52.2 (67145) - http://www.bohemiancoding.com/sketch -->
    <title>钱包</title>
    <desc>Created with Sketch.</desc>
    <g id="Page-1" stroke="none" stroke-width="1" fill="none" fill-rule="evenodd">
        <g id="首页-copy" transform="translate(-251.000000, -910.000000)" fill="#666666" fill-rule="nonzero">
            <g id="Group-7" transform="translate(0.000000, 899.000000)">
                <g id="钱包" transform="translate(251.000000, 11.000000)">
                    <g id="Group" transform="translate(0.265060, 0.326227)">
                        <path d="M20.0061073,20.5523136 L1.44318835,20.5523136 C0.646007335,20.5523136 0.00067080468,19.9069771 0.00067080468,19.1097961 L0.00067080468,5.78549463 C0.00067080468,4.98831361 0.646007335,4.34297708 1.44318835,4.34297708 L20.0061073,4.34297708 C20.8032883,4.34297708 21.4486249,4.98831361 21.4486249,5.78549463 L21.4486249,19.1477607 C21.4106639,19.9069811 20.8032883,20.5523177 20.0061073,20.5523177 L20.0061073,20.5523136 Z M1.44318835,5.6716026 C1.40522733,5.6716026 1.36726631,5.70956362 1.36726631,5.74752464 L1.36726631,19.1097907 C1.36726631,19.1477518 1.40522733,19.1857128 1.44318835,19.1857128 L20.0061073,19.1857128 C20.0440683,19.1857128 20.0820294,19.1477518 20.0820294,19.1097907 L20.0820294,5.78548933 C20.0820294,5.74752831 20.0440683,5.70956729 20.0061073,5.70956729 L1.44318835,5.70956729 L1.44318835,5.6716026 Z" id="Shape"></path>
                        <path d="M0.759887134,5.6716026 C0.570082236,5.6716026 0.38027693,5.59568056 0.228432441,5.44383688 C0.0765885636,5.291993 0.00066672684,5.10218729 0.00066672684,4.91238219 L0.00066672684,2.21715423 C0.00066672684,1.79958341 0.342316318,1.41997321 0.759887134,1.3820126 L16.8173812,0.0154162741 C17.0071861,0.0154162741 17.1969914,0.0533772945 17.3488359,0.205221172 C17.5006798,0.319104029 17.5766016,0.508908111 17.5766016,0.736675865 L17.7284455,4.95034871 C17.7284455,5.14015361 17.6525234,5.32995892 17.5386406,5.48180341 C17.3867967,5.63364729 17.196991,5.70956912 17.0071859,5.70956912 L0.759888765,5.6716081 L0.759887134,5.6716026 Z M1.32929632,2.67268974 L1.32929632,4.342973 L16.3998104,4.342973 L16.2859273,1.41997729 L1.32930733,2.67268974 L1.32929632,2.67268974 Z M13.9323298,12.0490609 L20.5375335,12.0490609 L20.5375335,13.339734 L13.9323298,13.339734 L13.9323298,12.0490609 Z" id="Shape"></path>
                    </g>
                </g>
            </g>
        </g>
    </g>
</svg>