<?xml version="1.0" encoding="UTF-8"?>
<svg width="50px" height="50px" viewBox="0 0 50 50" version="1.1" xmlns="http://www.w3.org/2000/svg" xmlns:xlink="http://www.w3.org/1999/xlink">
    <!-- Generator: Sketch 52.2 (67145) - http://www.bohemiancoding.com/sketch -->
    <title>增加算力</title>
    <desc>Created with Sketch.</desc>
    <g id="Page-1" stroke="none" stroke-width="1" fill="none" fill-rule="evenodd">
        <g id="首页" transform="translate(-310.000000, -476.000000)" fill="#00AAFF">
            <g id="增加算力" transform="translate(310.000000, 476.000000)">
                <g id="编组">
                    <path d="M0.712810465,24.6575342 L0.337837838,24.6575342 C0.337837838,32.5202961 3.94919921,39.7598768 10.2461145,44.5205479 L10.472973,44.2229593 C4.27017578,39.5336049 0.712810465,32.4023061 0.712810465,24.6575342" id="Fill-1"></path>
                    <path d="M41.8530252,6.84931507 L41.6032825,7.12247972 C46.4917861,11.7506053 49.2954327,18.2998397 49.2954327,25.0905188 C49.2954327,38.6200056 38.4787476,49.6268243 25.1829713,49.6268243 C20.7660818,49.6268243 16.4463756,48.4009419 12.6903326,46.0812815 L12.5,46.3999736 C16.3136196,48.7550857 20.6993371,50 25.1829713,50 C38.6811822,50 49.6621622,38.8259986 49.6621622,25.0905188 C49.6621622,18.19647 46.8159749,11.5475977 41.8530252,6.84931507" id="Fill-3"></path>
                    <path d="M25.2691423,0.369714897 C30.3492018,0.369714897 35.2054474,1.95172494 39.3130874,4.94456703 L39.527027,4.64472825 C35.3568508,1.60604151 30.426732,0 25.2691423,0 C12.8354126,0 2.40796075,9.40480754 1.01351351,21.8764002 L1.37702795,21.9178082 C2.75026408,9.63329135 13.021924,0.369714897 25.2691423,0.369714897" id="Fill-5"></path>
                    <path d="M24.9672702,42.0914044 C15.6886566,42.0914044 8.14009823,34.4505656 8.14009823,25.058522 C8.14009823,17.3173577 13.2999379,10.5416397 20.6879909,8.58117363 L20.5940546,8.21917808 C13.0436471,10.2226943 7.77027027,17.1474032 7.77027027,25.058522 C7.77027027,34.656832 15.4848814,42.4657534 24.9672702,42.4657534 C31.3804568,42.4657534 37.2181911,38.8925916 40.2027027,33.1399696 L39.8750351,32.9662716 C36.9548736,38.5949841 31.242511,42.0914044 24.9672702,42.0914044" id="Fill-7"></path>
                    <path d="M22.6838992,8.05167609 C23.4198272,7.9547277 24.1725062,7.90569634 24.920346,7.90569634 C34.2595961,7.90569634 41.8574849,15.4873574 41.8574849,24.8066604 C41.8574849,26.831433 41.5023634,28.8116317 40.8021709,30.6922818 L41.1509643,30.8219178 C41.866791,28.8996653 42.2297297,26.8756356 42.2297297,24.8066604 C42.2297297,15.2826886 34.464703,7.53424658 24.920346,7.53424658 C24.1561274,7.53424658 23.3874419,7.58439229 22.6351351,7.68356938 L22.6838992,8.05167609 Z" id="Fill-9"></path>
                    <path d="M26.8037105,4.28548874 C37.2352268,5.05001161 45.4935868,13.8914326 45.4935868,24.6575342 C45.4935868,24.7303459 45.4888227,24.8016717 45.4880898,24.8741119 L44.2109482,24.8741119 L44.2109482,26.7315533 L45.3902428,26.7315533 C44.3615667,37.0273508 35.7612918,45.0893894 25.3378378,45.0893894 C20.208383,45.0893894 15.523454,43.1338751 11.9617499,39.9238449 L13.2792029,38.8127235 L9.76294091,34.5298352 L8.38685295,35.6903645 C6.36248282,32.5055955 5.18208887,28.7197585 5.18208887,24.6575342 C5.18208887,20.6762944 6.31520843,16.9602972 8.26591846,13.8152775 L9.57934036,14.7603436 L10.6402657,13.2457859 L9.30961979,12.2884606 C12.9259276,7.48474576 18.5907925,4.35161365 24.9713697,4.23496633 L24.9713697,5.74246575 L26.8037105,5.74246575 L26.8037105,4.28548874 Z M3.71621622,24.6575342 C3.71621622,36.7431623 13.4155291,46.5753425 25.3378378,46.5753425 C37.2601466,46.5753425 46.9594595,36.7431623 46.9594595,24.6575342 C46.9594595,12.5719062 37.2601466,2.73972603 25.3378378,2.73972603 C13.4155291,2.73972603 3.71621622,12.5719062 3.71621622,24.6575342 Z" id="Fill-11"></path>
                </g>
                <g id="增加" transform="translate(16.000000, 16.000000)">
                    <polygon id="Path" points="17.9377162 11.2110727 11.2110726 11.2110727 11.2110726 17.9377163 6.72664358 17.9377163 6.72664358 11.2110727 0 11.2110727 0 6.7266436 6.72664358 6.7266436 6.7266436 0 11.2110727 0 11.2110727 6.7266436 17.9377162 6.7266436 17.9377163 11.2110727"></polygon>
                </g>
            </g>
        </g>
    </g>
</svg>