<?xml version="1.0" encoding="UTF-8"?>
<svg width="50px" height="50px" viewBox="0 0 50 50" version="1.1" xmlns="http://www.w3.org/2000/svg" xmlns:xlink="http://www.w3.org/1999/xlink">
    <!-- Generator: Sketch 52.2 (67145) - http://www.bohemiancoding.com/sketch -->
    <title>购买算力</title>
    <desc>Created with Sketch.</desc>
    <g id="Page-1" stroke="none" stroke-width="1" fill="none" fill-rule="evenodd">
        <g id="首页" transform="translate(-246.000000, -476.000000)" fill="#00AAFF">
            <g id="购买算力" transform="translate(246.000000, 476.000000)">
                <g id="编组">
                    <path d="M0.712810465,24.6575342 L0.337837838,24.6575342 C0.337837838,32.5202961 3.94919921,39.7598768 10.2461145,44.5205479 L10.472973,44.2229593 C4.27017578,39.5336049 0.712810465,32.4023061 0.712810465,24.6575342" id="Fill-1"></path>
                    <path d="M41.8530252,6.84931507 L41.6032825,7.12247972 C46.4917861,11.7506053 49.2954327,18.2998397 49.2954327,25.0905188 C49.2954327,38.6200056 38.4787476,49.6268243 25.1829713,49.6268243 C20.7660818,49.6268243 16.4463756,48.4009419 12.6903326,46.0812815 L12.5,46.3999736 C16.3136196,48.7550857 20.6993371,50 25.1829713,50 C38.6811822,50 49.6621622,38.8259986 49.6621622,25.0905188 C49.6621622,18.19647 46.8159749,11.5475977 41.8530252,6.84931507" id="Fill-3"></path>
                    <path d="M25.2691423,0.369714897 C30.3492018,0.369714897 35.2054474,1.95172494 39.3130874,4.94456703 L39.527027,4.64472825 C35.3568508,1.60604151 30.426732,0 25.2691423,0 C12.8354126,0 2.40796075,9.40480754 1.01351351,21.8764002 L1.37702795,21.9178082 C2.75026408,9.63329135 13.021924,0.369714897 25.2691423,0.369714897" id="Fill-5"></path>
                    <path d="M24.9672702,42.0914044 C15.6886566,42.0914044 8.14009823,34.4505656 8.14009823,25.058522 C8.14009823,17.3173577 13.2999379,10.5416397 20.6879909,8.58117363 L20.5940546,8.21917808 C13.0436471,10.2226943 7.77027027,17.1474032 7.77027027,25.058522 C7.77027027,34.656832 15.4848814,42.4657534 24.9672702,42.4657534 C31.3804568,42.4657534 37.2181911,38.8925916 40.2027027,33.1399696 L39.8750351,32.9662716 C36.9548736,38.5949841 31.242511,42.0914044 24.9672702,42.0914044" id="Fill-7"></path>
                    <path d="M22.6838992,8.05167609 C23.4198272,7.9547277 24.1725062,7.90569634 24.920346,7.90569634 C34.2595961,7.90569634 41.8574849,15.4873574 41.8574849,24.8066604 C41.8574849,26.831433 41.5023634,28.8116317 40.8021709,30.6922818 L41.1509643,30.8219178 C41.866791,28.8996653 42.2297297,26.8756356 42.2297297,24.8066604 C42.2297297,15.2826886 34.464703,7.53424658 24.920346,7.53424658 C24.1561274,7.53424658 23.3874419,7.58439229 22.6351351,7.68356938 L22.6838992,8.05167609 Z" id="Fill-9"></path>
                    <path d="M26.8037105,4.28548874 C37.2352268,5.05001161 45.4935868,13.8914326 45.4935868,24.6575342 C45.4935868,24.7303459 45.4888227,24.8016717 45.4880898,24.8741119 L44.2109482,24.8741119 L44.2109482,26.7315533 L45.3902428,26.7315533 C44.3615667,37.0273508 35.7612918,45.0893894 25.3378378,45.0893894 C20.208383,45.0893894 15.523454,43.1338751 11.9617499,39.9238449 L13.2792029,38.8127235 L9.76294091,34.5298352 L8.38685295,35.6903645 C6.36248282,32.5055955 5.18208887,28.7197585 5.18208887,24.6575342 C5.18208887,20.6762944 6.31520843,16.9602972 8.26591846,13.8152775 L9.57934036,14.7603436 L10.6402657,13.2457859 L9.30961979,12.2884606 C12.9259276,7.48474576 18.5907925,4.35161365 24.9713697,4.23496633 L24.9713697,5.74246575 L26.8037105,5.74246575 L26.8037105,4.28548874 Z M3.71621622,24.6575342 C3.71621622,36.7431623 13.4155291,46.5753425 25.3378378,46.5753425 C37.2601466,46.5753425 46.9594595,36.7431623 46.9594595,24.6575342 C46.9594595,12.5719062 37.2601466,2.73972603 25.3378378,2.73972603 C13.4155291,2.73972603 3.71621622,12.5719062 3.71621622,24.6575342 Z" id="Fill-11"></path>
                </g>
                <path d="M33.6609367,19.3337582 C34.0294878,19.3337582 34.3980389,19.4271582 34.5823144,19.5205579 C34.674452,19.6139578 34.7665898,19.6139578 34.8587268,19.7073575 L35.0430021,19.8941572 C35.1351399,20.0809569 35.1351399,20.174356 35.1351399,20.3611559 L35.1351399,20.8281545 L34.8587275,21.5753539 L34.3980397,22.882951 L33.9373518,24.2839489 C33.7530765,24.8443485 33.6609395,25.2179482 33.5688008,25.4047461 C33.4766632,25.6849449 33.3845254,25.8717447 33.2923884,26.0585446 C33.2002509,26.2453443 33.0159761,26.4321443 32.9238374,26.5255432 C32.647425,26.7123429 32.278874,26.805742 31.9103229,26.805742 L21.0380839,26.805742 L21.3144962,28.6737386 L31.6339145,28.6737386 C32.2788779,28.6737386 32.647429,28.9539374 32.647429,29.514337 C32.647429,29.7945358 32.5552914,29.9813357 32.4631537,30.2615365 C32.3710161,30.4483361 32.0946026,30.5417352 31.7260515,30.5417352 L20.669539,30.5417352 C20.5774014,30.5417352 20.4852636,30.5417352 20.4852636,30.4483355 L20.3009883,30.2615358 C20.116713,30.1681361 19.9324372,29.9813371 19.8403004,29.7945372 C19.7481627,29.7011375 19.7481627,29.6077375 19.6560251,29.5143384 C19.5638873,29.3275388 19.5638873,29.2341396 19.4717498,29.1407387 C19.379612,28.8605399 19.379612,28.67374 19.2874744,28.4869402 L19.1953367,27.9265406 L19.0110613,26.8057434 L18.734649,25.2179456 L18.3660979,23.349949 L17.4447202,18.7733514 L15.9705179,18.7733514 C15.7862426,18.6799515 15.6019668,18.6799515 15.4176913,18.5865518 L15.0491402,18.212952 C15.0491402,18.1195521 14.9570026,18.0261524 14.9570024,17.9327532 C14.9570024,17.8393535 14.8648649,17.7459536 14.8648649,17.7459536 L14.8648649,17.5591539 L14.8648649,17.3723543 C14.8648649,17.0921555 14.9570024,16.9053556 15.1412772,16.7185558 C15.2334148,16.625156 15.3255525,16.625156 15.5098283,16.5317561 C15.6019658,16.5317561 15.7862406,16.4383564 15.8783793,16.4383562 L17.997555,16.4383562 C18.2739673,16.4383562 18.4582428,16.4383562 18.6425184,16.5317561 C18.7346561,16.5317561 18.8267937,16.6251558 18.8267937,16.6251558 C18.9189315,16.6251558 18.9189315,16.7185556 19.011069,16.8119555 C19.1032066,16.9053554 19.1953444,16.9987551 19.1953444,17.1855552 L19.2874821,17.5591549 C19.2874821,17.6525547 19.2874821,17.7459546 19.3796199,17.9327547 L19.3796199,18.0261546 L19.4717577,18.5865542 L19.5638955,19.3337536 L33.6609514,19.3337536 L33.6609367,19.3337582 Z M30.2518462,31.0087345 L30.6203973,31.0087345 C30.7125349,31.0087345 30.8968096,31.1021342 30.9889484,31.1021344 C31.2653607,31.1955342 31.4496362,31.2889341 31.6339118,31.4757341 C31.8181871,31.6625338 32.0024628,31.8493339 32.0945996,32.0361337 C32.1867372,32.2229334 32.278875,32.5031324 32.278875,32.7833332 L32.278875,33.1569329 C32.278875,33.2503326 32.1867374,33.4371317 32.1867372,33.5305326 C32.0945996,33.7173323 31.9103249,33.9975313 31.7260493,34.1843311 C31.541774,34.3711308 31.3574983,34.4645299 31.0810859,34.5579308 C30.8968106,34.6513306 30.6203981,34.7447305 30.3439838,34.7447305 C30.0675715,34.7447305 29.7911572,34.6513308 29.6068816,34.5579308 C29.3304693,34.4645311 29.1461938,34.2777321 29.054055,34.1843311 C28.8697797,33.9975315 28.7776427,33.8107314 28.6855039,33.5305326 C28.5933664,33.343733 28.5012286,33.063534 28.5012286,32.7833332 L28.5012286,32.4097334 C28.5012286,32.3163337 28.5933662,32.1295347 28.5933664,32.0361337 C28.6855039,31.8493341 28.7776417,31.662534 28.9619174,31.4757341 L29.2383298,31.1955354 C29.3304673,31.1021356 29.4226051,31.1021356 29.5147421,31.0087357 C29.6068796,31.0087357 29.6990174,30.915336 29.7911544,30.915336 L30.0675667,30.915336 C30.0675667,31.0087357 30.1597043,31.0087357 30.2518421,31.0087357 L30.2518462,31.0087345 Z M21.6830366,31.0087345 C21.959449,31.0087345 22.1437245,31.0087345 22.4201388,31.1021344 C22.6044141,31.1955342 22.8808266,31.2889341 23.0651022,31.4757341 C23.1572398,31.6625338 23.1572398,31.7559329 23.2493775,31.8493339 C23.3415151,31.9427336 23.3415151,32.0361335 23.4336529,32.1295327 C23.5257904,32.4097314 23.6179282,32.5965313 23.6179282,32.8767321 C23.6179282,33.1569309 23.5257906,33.3437307 23.4336529,33.6239315 C23.3415153,33.8107312 23.2493775,34.0909302 23.0651018,34.2777301 C22.8808264,34.4645297 22.6965507,34.5579288 22.4201384,34.6513298 C22.1437261,34.7447295 21.9594505,34.8381294 21.6830362,34.8381294 C21.4066239,34.8381294 21.1302096,34.8381294 20.9459341,34.7447297 C20.7616587,34.65133 20.4852462,34.4645309 20.3009707,34.37113 C20.1166953,34.1843303 20.0245584,33.9975303 19.9324196,33.7173315 C19.8402818,33.5305318 19.8402818,33.2503328 19.8402818,32.970132 C19.8402818,32.6899332 19.8402818,32.5031334 19.9324196,32.2229326 C19.9324196,32.1295329 20.0245572,32.0361329 20.116695,31.9427338 L20.3931073,31.662535 C20.3931073,31.4757353 20.3931073,31.3823362 20.485245,31.3823362 L20.6695204,31.1955366 C20.7616579,31.1955366 20.8537957,31.1021368 20.8537957,31.1021368 C20.9459333,31.1021368 20.9459333,31.1021368 21.0380711,31.0087369 L21.6830345,31.0087369 L21.6830366,31.0087345 Z" id="Shape" fill-rule="nonzero"></path>
            </g>
        </g>
    </g>
</svg>