<?xml version="1.0" encoding="UTF-8"?>
<svg width="22px" height="22px" viewBox="0 0 22 22" version="1.1" xmlns="http://www.w3.org/2000/svg" xmlns:xlink="http://www.w3.org/1999/xlink">
    <!-- Generator: Sketch 52.6 (67491) - http://www.bohemiancoding.com/sketch -->
    <title>算力</title>
    <desc>Created with Sketch.</desc>
    <g id="Page-1" stroke="none" stroke-width="1" fill="none" fill-rule="evenodd">
        <g id="算力" fill="#666666" fill-rule="nonzero">
            <g id="Group" transform="translate(0.687501, 0.000000)">
                <path d="M17.8474778,0.0187553441 L2.75745829,0.0187553441 C1.24401986,0.0231698295 0.0182403131,1.24895638 0.0138145267,2.76239916 L0.0138145267,19.2242406 L0.0138144663,19.2242198 C0.0182175866,20.7376583 1.24399617,21.9634593 2.7574368,21.9678851 L17.8474563,21.9678851 L17.8474564,21.9678851 C19.3609035,21.9634819 20.5866959,20.7376905 20.5911217,19.2242413 L20.5911217,2.76239989 L20.5911218,2.76242082 C20.5867188,1.24898234 19.3609401,0.0231813007 17.8474995,0.0187555143 L17.8474778,0.0187553441 Z M19.2206382,19.2242406 L19.2206382,19.224251 C19.2191582,19.9820144 18.6052326,20.5959311 17.8474692,20.5974007 L2.75747116,20.5974007 C1.99970774,20.5959264 1.38578672,19.9820037 1.38431074,19.2242403 L1.38431074,5.50604268 L19.2193061,5.50604268 L19.2206382,19.2242406 Z M19.2206597,4.13422107 L1.38564282,4.13422107 L1.38564282,2.76106068 L1.38564284,2.76105036 C1.38712279,2.00328698 2.00104844,1.38937025 2.75881182,1.38790071 L17.8474993,1.38790071 C18.6052627,1.389375 19.2191838,2.00329772 19.2206597,2.7610611 L19.2206597,4.13422107 Z" id="Shape"></path>
                <path d="M15.7897449,13.7369535 C14.6235631,13.7369535 13.7320142,14.6285024 13.7320142,15.7946842 C13.7320142,16.960866 14.6235631,17.8510743 15.7897449,17.8510743 C16.9559268,17.8510743 17.8474757,16.9595254 17.8474757,15.7933436 C17.8474757,14.6271617 16.9559268,13.7369535 15.7897449,13.7369535 Z M16.4756559,15.7946842 C16.4756559,16.1735014 16.1685643,16.4805952 15.7897449,16.4805952 C15.7897449,16.4805952 15.7897449,16.4805952 15.7897449,16.4805952 C15.4109277,16.4805951 15.103834,16.1735036 15.103834,15.7946842 C15.103834,15.7946842 15.103834,15.7946842 15.103834,15.7946842 C15.1038339,15.4158671 15.4109255,15.1087733 15.7897428,15.1087733 C15.7897428,15.1087733 15.7897428,15.1087733 15.7897428,15.1087733 C16.16856,15.1087733 16.4756537,15.4158649 16.4756537,15.7946843 C16.4756537,15.7946843 16.4756537,15.7946843 16.4756537,15.7946843 L16.4756559,15.7946842 Z M15.7897449,8.24968519 C14.6235631,8.24968519 13.7320142,9.14123407 13.7320142,10.3074159 C13.7320142,11.4735977 14.6235631,12.3651466 15.7897449,12.3651466 C16.9559268,12.3651466 17.8474757,11.4735977 17.8474757,10.3074159 C17.8474757,9.14123407 16.9559268,8.24968519 15.7897449,8.24968519 Z M16.4756559,10.3074159 C16.4756559,10.6862331 16.1685643,10.9933269 15.7897449,10.9933269 C15.7897449,10.9933269 15.7897449,10.9933269 15.7897449,10.9933269 C15.4109277,10.9933268 15.103834,10.6862353 15.103834,10.3074159 C15.103834,10.3074159 15.103834,10.3074159 15.103834,10.3074159 C15.103834,9.92859856 15.4109255,9.62150484 15.7897449,9.62150699 C15.7897449,9.62150699 15.7897449,9.62150699 15.7897449,9.62150699 C16.1685621,9.62150697 16.4756558,9.92859856 16.4756558,10.3074179 C16.4756558,10.3074179 16.4756558,10.3074179 16.4756558,10.3074179 L16.4756559,10.3074159 Z M10.3024573,13.7369707 C9.13627548,13.7369707 8.24472659,14.6285196 8.24472659,15.7947014 C8.24472659,16.9608832 9.13627548,17.8510915 10.3024573,17.8510915 C11.4686391,17.8510915 12.360188,16.9595426 12.360188,15.7933608 C12.360188,14.6271789 11.4686391,13.7369707 10.3024573,13.7369707 Z M10.9883683,15.7947014 C10.9883683,16.1735186 10.6812767,16.4806123 10.3024573,16.4806123 C10.3024573,16.4806123 10.3024573,16.4806123 10.3024573,16.4806123 C9.92364003,16.4806123 9.61654632,16.1735208 9.61654632,15.7947014 C9.61654632,15.7947014 9.61654632,15.7947014 9.61654632,15.7947014 C9.61654626,15.4158843 9.92363788,15.1087905 10.3024551,15.1087905 C10.3024551,15.1087905 10.3024551,15.1087905 10.3024551,15.1087905 C10.6812723,15.1087905 10.988366,15.4158821 10.988366,15.7947015 C10.988366,15.7947015 10.988366,15.7947015 10.988366,15.7947015 L10.9883683,15.7947014 Z M10.3024573,8.24970237 C9.13627548,8.24970237 8.24472659,9.14125126 8.24472659,10.3074331 C8.24472659,11.4736149 9.13627548,12.3651638 10.3024573,12.3651638 C11.4686391,12.3651638 12.360188,11.4736149 12.360188,10.3074331 C12.360188,9.14125126 11.4686391,8.24970237 10.3024573,8.24970237 Z M10.9883683,10.3074331 C10.9883683,10.6862503 10.6812767,10.993344 10.3024573,10.993344 C9.92364003,10.993344 9.61654632,10.6862525 9.61654632,10.3074331 C9.61654637,9.92861575 9.92363788,9.62152203 10.3024573,9.62152418 C10.6812745,9.62152416 10.9883682,9.92861575 10.9883682,10.3074351 C10.9883682,10.3074351 10.9883682,10.3074351 10.9883682,10.3074351 L10.9883683,10.3074331 Z M4.81516967,13.7369879 C3.64898784,13.7369879 2.75743895,14.6285367 2.75743895,15.7947186 C2.75743895,16.9609004 3.64898784,17.8511087 4.81516967,17.8511087 C5.98135149,17.8511087 6.87290038,16.9595598 6.87290038,15.7933779 C6.87290038,14.6271961 5.98135149,13.7369879 4.81516967,13.7369879 Z M5.50108062,15.7947186 C5.50108062,16.1739053 5.19368827,16.4812977 4.8145015,16.4812977 C4.43531473,16.4812977 4.12792238,16.1739053 4.12792238,15.7947186 C4.12792232,15.4155319 4.43531473,15.1081396 4.8145015,15.1081396 C5.19368827,15.1081395 5.50108062,15.4155319 5.50108062,15.7947187 C5.50108062,15.7947187 5.50108062,15.7947187 5.50108062,15.7947187 Z M4.81516967,8.24971956 C3.64898784,8.24971956 2.75743895,9.14126845 2.75743895,10.3074503 C2.75743895,11.4736321 3.64898784,12.365181 4.81516967,12.365181 C5.98135149,12.365181 6.87290038,11.4736321 6.87290038,10.3074503 C6.87290038,9.14126845 5.98135149,8.24971956 4.81516967,8.24971956 Z M5.50108062,10.3074503 C5.50108062,10.686637 5.19368827,10.9940294 4.8145015,10.9940294 C4.43531473,10.9940294 4.12792238,10.686637 4.12792238,10.3074503 C4.12792232,9.92826361 4.43531473,9.62087126 4.8145015,9.62087126 C5.19368827,9.6208712 5.50108062,9.92826361 5.50108062,10.3074504 C5.50108062,10.3074504 5.50108062,10.3074504 5.50108062,10.3074504 Z" id="Shape"></path>
            </g>
        </g>
    </g>
</svg>