<?xml version="1.0" encoding="utf-8"?>
<!-- Generator: Adobe Illustrator 21.0.0, SVG Export Plug-In . SVG Version: 6.00 Build 0)  -->
<svg version="1.1" id="图层_1" xmlns="http://www.w3.org/2000/svg" xmlns:xlink="http://www.w3.org/1999/xlink" x="0px" y="0px"
	 viewBox="0 0 80 80" style="enable-background:new 0 0 80 80;" xml:space="preserve">
<style type="text/css">
	.st0{fill:url(#path-2_2_);}
</style>
<g id="Page-1">
	<g id="画板" transform="translate(-20.000000, -20.000000)">
		<g id="Clip-2">
			
				<linearGradient id="path-2_2_" gradientUnits="userSpaceOnUse" x1="49.9113" y1="69.6602" x2="50.3462" y2="70.0973" gradientTransform="matrix(80 0 0 -80.0042 -3950 5650.2949)">
				<stop  offset="0" style="stop-color:#953D96"/>
				<stop  offset="1" style="stop-color:#D85BDB"/>
			</linearGradient>
			<path id="path-2_1_" class="st0" d="M60,30c0,0-5.7,3.4-12.7,9.6c-0.3,0.3-0.5,0.7-0.5,1.1c0,0.4,0.1,0.8,0.4,1.1
				c0.4,0.4,0.9,0.5,1.4,0.4c2.6-0.5,5.2,0.3,7.1,2.2c1.6,1.6,2.4,3.8,2.3,6.1c-0.1,2.3-1.2,4.4-3,5.8c-2.9,2.3-7.1,2.3-10-0.1
				c-2.2-1.8-3.3-4.7-2.7-7.6c0.1-0.5-0.1-1-0.4-1.4l-0.1-0.1c-0.3-0.3-0.7-0.5-1.1-0.5c-0.4,0-0.8,0.2-1.1,0.5
				c-3.4,3.7-6.7,8-9.6,12.8c0,0,3.3,5.6,9.4,12.4c0.3,0.4,0.8,0.6,1.3,0.6c0.5,0,1-0.2,1.4-0.5c0.4-0.4,0.6-1,0.5-1.6
				c-0.5-2.8,0.6-5.6,2.8-7.4c2.9-2.4,7.1-2.4,10-0.1c2.8,2.2,3.8,6.1,2.3,9.5c-1.5,3.3-5,5.2-8.6,4.6c-0.6-0.1-1.2,0.1-1.6,0.5
				L47.4,78c-0.4,0.4-0.6,0.8-0.5,1.3c0,0.5,0.2,1,0.6,1.3C51.1,84,55.3,87.2,60,90c0,0,5.7-3.4,12.7-9.6c0.3-0.3,0.5-0.7,0.5-1.1
				c0-0.4-0.1-0.8-0.4-1.1c-0.4-0.4-0.9-0.5-1.4-0.4c-2.9,0.6-5.9-0.6-7.7-2.9c-2.2-2.8-2.2-7,0.1-9.8c2.3-2.9,6.2-3.8,9.5-2.3
				c3.3,1.5,5.2,5.1,4.5,8.7c-0.1,0.5,0.1,1,0.4,1.4l0.1,0.1c0.3,0.3,0.7,0.5,1.1,0.5c0.4,0,0.8-0.2,1.1-0.5c3.4-3.7,6.7-8,9.6-12.8
				c0,0-3.3-5.6-9.4-12.4c-0.3-0.4-0.8-0.6-1.3-0.6c-0.5,0-1,0.2-1.4,0.5c-0.4,0.4-0.6,1-0.5,1.6c0.5,2.8-0.6,5.6-2.8,7.4
				c-2.9,2.4-7.1,2.4-10,0.1c-2.8-2.2-3.8-6.1-2.3-9.5c1.5-3.3,5-5.2,8.6-4.6c0.6,0.1,1.2-0.1,1.6-0.5l0.1-0.1
				c0.4-0.4,0.5-0.8,0.5-1.3c0-0.5-0.2-1-0.6-1.3C68.9,36,64.7,32.8,60,30z"/>
		</g>
	</g>
</g>
</svg>
