<?xml version="1.0" encoding="UTF-8"?>
<svg width="16px" height="16px" viewBox="0 0 16 16" version="1.1" xmlns="http://www.w3.org/2000/svg" xmlns:xlink="http://www.w3.org/1999/xlink">
    <!-- Generator: Sketch 52.2 (67145) - http://www.bohemiancoding.com/sketch -->
    <title>二维码</title>
    <desc>Created with Sketch.</desc>
    <defs>
        <polygon id="path-1" points="0 0 15.9826459 0 15.9826459 15.9821826 0 15.9821826"></polygon>
    </defs>
    <g id="Page-1" stroke="none" stroke-width="1" fill="none" fill-rule="evenodd" opacity="0.498558408">
        <g id="钱包" transform="translate(-257.000000, -146.000000)">
            <g id="Group-4" transform="translate(14.000000, 98.000000)">
                <g id="二维码" transform="translate(243.000000, 48.000000)">
                    <mask id="mask-2" fill="white">
                        <use xlink:href="#path-1"></use>
                    </mask>
                    <g id="Clip-2"></g>
                    <path d="M1.15812918,6.27171492 L6.27171492,6.27171492 L6.27171492,1.15812918 L1.15812918,1.15812918 L1.15812918,6.27171492 Z M6.85077951,0 L0.579064588,0 C0.261167038,0.00459688196 0.00459688196,0.261167038 0,0.579064588 L0,6.85077951 C0.00459688196,7.16867706 0.261167038,7.42524722 0.579064588,7.4298441 L6.85077951,7.4298441 C7.15367483,7.4298441 7.44374165,7.16365256 7.4298441,6.85077951 L7.4298441,0.579064588 C7.42524722,0.261167038 7.16867706,0.00459688196 6.85077951,0 Z" id="Fill-1" fill="#FFFFFF" mask="url(#mask-2)"></path>
                    <path d="M1.15812918,14.8240535 L6.27171492,14.8240535 L6.27171492,9.71046771 L1.15812918,9.71046771 L1.15812918,14.8240535 Z M6.85077951,8.55233853 L0.579064588,8.55233853 C0.261167038,8.55693541 0.00459688196,8.81350557 0,9.13140312 L0,15.403118 C0.00459688196,15.7210156 0.261167038,15.9775857 0.579064588,15.9821826 L6.85077951,15.9821826 C7.15367483,15.9821826 7.44374165,15.7159911 7.4298441,15.403118 L7.4298441,9.13140312 C7.42524722,8.81350557 7.16867706,8.55693541 6.85077951,8.55233853 Z" id="Fill-3" fill="#FFFFFF" mask="url(#mask-2)"></path>
                    <path d="M9.71046771,6.27171492 L14.8240535,6.27171492 L14.8240535,1.15812918 L9.71046771,1.15812918 L9.71046771,6.27171492 Z M15.403118,0 L9.13140312,0 C8.81350557,0.00459688196 8.55693541,0.261167038 8.55233853,0.579064588 L8.55233853,6.85077951 C8.55693541,7.16867706 8.81350557,7.42524722 9.13140312,7.4298441 L15.403118,7.4298441 C15.7060134,7.4298441 15.9960802,7.16365256 15.9821826,6.85077951 L15.9821826,0.579064588 C15.9775857,0.261167038 15.7210156,0.00459688196 15.403118,0 Z" id="Fill-4" fill="#FFFFFF" mask="url(#mask-2)"></path>
                    <path d="M2.94520802,4.84099065 L4.48462895,4.84099065 C4.68143964,4.84099065 4.84097639,4.68141826 4.84097639,4.48464321 L4.84097639,2.94522227 C4.84097639,2.74841158 4.68143964,2.58887483 4.48462895,2.58887483 L2.94520802,2.58887483 C2.74839733,2.58887483 2.58886058,2.74841158 2.58886058,2.94522227 L2.58886058,4.48464321 C2.58886058,4.68141826 2.74839733,4.84099065 2.94520802,4.84099065" id="Fill-5" fill="#FFFFFF" mask="url(#mask-2)"></path>
                    <path d="M2.94520802,13.3933078 L4.48462895,13.3933078 C4.68143964,13.3933078 4.84097639,13.233771 4.84097639,13.0369604 L4.84097639,11.4975394 C4.84097639,11.3007287 4.68143964,11.141192 4.48462895,11.141192 L2.94520802,11.141192 C2.74839733,11.141192 2.58886058,11.3007287 2.58886058,11.4975394 L2.58886058,13.0369604 C2.58886058,13.233771 2.74839733,13.3933078 2.94520802,13.3933078" id="Fill-6" fill="#FFFFFF" mask="url(#mask-2)"></path>
                    <path d="M9.91536748,14.2628098 L8.93184855,14.2628098 C8.73503786,14.2628098 8.57550111,14.4223465 8.57550111,14.6191572 L8.57550111,15.6026762 C8.57550111,15.7994869 8.73503786,15.9590236 8.93184855,15.9590236 L9.91536748,15.9590236 C10.1121425,15.9590236 10.2717149,15.7994869 10.2717149,15.6026762 L10.2717149,14.6191572 C10.2717149,14.4223465 10.1121425,14.2628098 9.91536748,14.2628098" id="Fill-7" fill="#FFFFFF" mask="url(#mask-2)"></path>
                    <path d="M9.91536748,8.56125434 L8.93184855,8.56125434 C8.73503786,8.56125434 8.57550111,8.72079109 8.57550111,8.91760178 L8.57550111,9.90112071 C8.57550111,10.0979314 8.73503786,10.2574682 8.93184855,10.2574682 L9.91536748,10.2574682 C10.1121425,10.2574682 10.2717149,10.0979314 10.2717149,9.90112071 L10.2717149,8.91760178 C10.2717149,8.72079109 10.1121425,8.56125434 9.91536748,8.56125434" id="Fill-8" fill="#FFFFFF" mask="url(#mask-2)"></path>
                    <path d="M11.6258352,10.271722 L10.6423163,10.271722 C10.4455056,10.271722 10.2859688,10.4312588 10.2859688,10.6280695 L10.2859688,13.9064659 C10.2859688,14.103241 10.4455056,14.2628134 10.6423163,14.2628134 L11.6258352,14.2628134 C11.8226102,14.2628134 11.9821826,14.103241 11.9821826,13.9064659 L11.9821826,10.6280695 C11.9821826,10.4312588 11.8226102,10.271722 11.6258352,10.271722" id="Fill-9" fill="#FFFFFF" mask="url(#mask-2)"></path>
                    <path d="M15.6026584,8.56125434 L14.0489835,8.56125434 C13.8522085,8.56125434 13.6926361,8.72079109 13.6926361,8.91760178 L13.6926361,9.90112071 C13.6926361,10.0979314 13.8522085,10.2574682 14.0489835,10.2574682 L15.6026584,10.2574682 C15.799469,10.2574682 15.9590058,10.0979314 15.9590058,9.90112071 L15.9590058,8.91760178 C15.9590058,8.72079109 15.799469,8.56125434 15.6026584,8.56125434" id="Fill-10" fill="#FFFFFF" mask="url(#mask-2)"></path>
                    <path d="M15.6026584,12.0676918 L14.6191394,12.0676918 C14.4223644,12.0676918 14.262792,12.2272641 14.262792,12.4240392 L14.262792,14.2628276 L12.4097853,14.2628276 C12.2130102,14.2628276 12.0534379,14.4223287 12.0534379,14.6191751 L12.0534379,15.6169479 C12.0534379,15.8137229 12.2130102,15.9732953 12.4097853,15.9732953 L14.6191394,15.9732953 L15.6026584,15.9732953 C15.799469,15.9732953 15.9590058,15.8137229 15.9590058,15.6169479 L15.9590058,14.6191751 L15.9590058,12.4240392 C15.9590058,12.2272641 15.799469,12.0676918 15.6026584,12.0676918" id="Fill-11" fill="#FFFFFF" mask="url(#mask-2)"></path>
                    <path d="M11.4975644,4.84099065 L13.0369497,4.84099065 C13.233796,4.84099065 13.3932971,4.68141826 13.3932971,4.48464321 L13.3932971,2.94522227 C13.3932971,2.74841158 13.233796,2.58887483 13.0369497,2.58887483 L11.4975644,2.58887483 C11.3007537,2.58887483 11.1412169,2.74841158 11.1412169,2.94522227 L11.1412169,4.48464321 C11.1412169,4.68141826 11.3007537,4.84099065 11.4975644,4.84099065" id="Fill-12" fill="#FFFFFF" mask="url(#mask-2)"></path>
                </g>
            </g>
        </g>
    </g>
</svg>