<?xml version="1.0" encoding="UTF-8"?>
<svg width="20px" height="18px" viewBox="0 0 20 18" version="1.1" xmlns="http://www.w3.org/2000/svg" xmlns:xlink="http://www.w3.org/1999/xlink">
    <!-- Generator: Sketch 52.2 (67145) - http://www.bohemiancoding.com/sketch -->
    <title>提现</title>
    <desc>Created with Sketch.</desc>
    <g id="Page-1" stroke="none" stroke-width="1" fill="none" fill-rule="evenodd">
        <g id="钱包" transform="translate(-236.000000, -267.000000)" fill="#000000" fill-rule="nonzero">
            <g id="提现" transform="translate(236.000000, 267.000000)">
                <path d="M16.8851614,0.784893866 L3.11333877,0.784893866 C1.61423898,0.784893866 0.394273107,2.00032008 0.394273107,3.49418413 L0.394273107,14.4773317 C0.394273107,15.9711979 1.61424972,17.1869012 3.11333877,17.1869012 L16.88514,17.1869012 C18.3842397,17.1869012 19.6040552,15.9711893 19.6040552,14.4773317 L19.6040552,3.49418413 C19.6040772,2.00031794 18.3842548,0.784893866 16.8851614,0.784893866 Z M18.3858876,4.55624396 L18.3822161,4.55624396 L18.3822161,5.3767955 L12.8476843,5.3767955 C10.8908099,5.3767955 9.29886958,6.96319715 9.29886958,8.91323516 C9.29886958,10.863271 10.8908121,12.4496748 12.8476843,12.4496748 L18.3858899,12.4496748 L18.3858899,14.4773618 C18.3858899,15.3020233 17.7127063,15.9728565 16.8851638,15.9728565 L3.1131907,15.9728565 C2.28580282,15.9728565 1.61261923,15.3020254 1.61261923,14.4773618 L1.61261923,3.49419272 C1.61261923,2.6695527 2.28580282,1.99869801 3.1131907,1.99869801 L16.8851638,1.99869801 C17.7127063,1.99869801 18.3858899,2.66952907 18.3858899,3.49419272 L18.3858899,4.5562504 L18.3858876,4.55624396 Z M18.3821941,6.59087894 L18.3821941,11.2358492 L12.8476623,11.2358492 C11.5624998,11.2358492 10.5170346,10.1940406 10.5170346,8.91336407 C10.5170346,7.63268758 11.5624934,6.59087894 12.8476623,6.59087894 L18.3821941,6.59087894 Z M11.804079,8.91342852 C11.804079,9.55060211 12.3247535,10.0686576 12.9645847,10.0686576 C13.6041323,10.0686576 14.1245425,9.55059996 14.1245425,8.91342852 C14.1245425,8.27612387 13.6041323,7.75806624 12.9645847,7.75806624 C12.324906,7.75806624 11.804079,8.27610239 11.804079,8.91342852 Z" id="Shape"></path>
            </g>
        </g>
    </g>
</svg>