<?xml version="1.0" encoding="UTF-8"?>
<svg width="23px" height="18px" viewBox="0 0 23 18" version="1.1" xmlns="http://www.w3.org/2000/svg" xmlns:xlink="http://www.w3.org/1999/xlink">
    <!-- Generator: Sketch 52.2 (67145) - http://www.bohemiancoding.com/sketch -->
    <title>充值</title>
    <desc>Created with Sketch.</desc>
    <g id="Page-1" stroke="none" stroke-width="1" fill="none" fill-rule="evenodd">
        <g id="钱包" transform="translate(-74.000000, -268.000000)" fill="#000000" fill-rule="nonzero">
            <g id="充值" transform="translate(74.000000, 268.000000)">
                <path d="M19.9519883,15.6847277 L18.576042,15.6847277 C18.576042,16.8630617 17.6498331,17.8233446 16.5118668,17.8233446 L2.06417176,17.8233446 C0.925674579,17.8233446 -3.48102e-06,16.8630652 -3.48102e-06,15.6847277 L-3.48102e-06,5.70401678 C-3.48102e-06,4.52463502 0.9256798,3.56487777 2.06417176,3.56487777 L2.75188207,3.56487777 L2.75188207,2.13965942 C2.75188207,0.960277658 3.67756535,-1.74051e-06 4.81605731,-1.74051e-06 L19.9519848,-1.74051e-06 C21.0899581,-1.74051e-06 22.0156379,0.960277658 22.0156379,2.13965942 L22.0156379,13.5450648 C22.0156379,14.7244466 21.0899546,15.684726 19.9519848,15.684726 L19.9519883,15.6847277 Z M1.37587315,15.6847277 C1.37587315,16.0773311 1.68461004,16.396551 2.06410736,16.396551 L16.5118024,16.396551 C16.8907776,16.396551 17.2000366,16.0773311 17.2000366,15.6847277 L17.2000366,9.2683724 L1.37587315,9.2683724 L1.37587664,15.6847277 L1.37587315,15.6847277 Z M2.06410736,4.99113869 C1.6846083,4.99113869 1.37587315,5.30983477 1.37587315,5.70400982 L1.37587315,7.84210451 L17.2000331,7.84210451 L17.2000331,5.70400982 C17.2000331,5.30983477 16.8907723,4.99113869 16.5117989,4.99113869 L2.06410388,4.99113869 L2.06410736,4.99113869 Z M20.6397003,13.5450665 L20.6397003,2.13966116 C20.6397003,1.74548612 20.3309634,1.42574225 19.95199,1.42574225 L4.81606253,1.42574225 C4.43603958,1.42574225 4.12782833,1.74548612 4.12782833,2.13966116 L4.12782833,3.56487951 L16.5118703,3.56487951 C17.6498436,3.56487951 18.5760455,4.52463502 18.5760455,5.70401852 L18.5760455,14.2579464 L19.9519918,14.2579464 C20.3309669,14.2579464 20.6397021,13.9392503 20.6397021,13.5450752 L20.6397003,13.5450665 Z M2.75195691,12.8321954 L5.50384246,12.8321954 L5.50384246,14.2579377 L2.75195691,14.2579377 L2.75195691,12.8321954 Z" id="Shape"></path>
            </g>
        </g>
    </g>
</svg>